<?xml version="1.0" encoding="UTF-8"?>
<svg width="110px" height="114px" viewBox="0 0 110 114" version="1.1" xmlns="http://www.w3.org/2000/svg" xmlns:xlink="http://www.w3.org/1999/xlink">
    <!-- Generator: sketchtool 51.2 (57519) - http://www.bohemiancoding.com/sketch -->
    <title>0EE9CF2B-7371-4950-A792-434A4963379E</title>
    <desc>Created with sketchtool.</desc>
    <defs></defs>
    <g id="Login" stroke="none" stroke-width="1" fill="none" fill-rule="evenodd">
        <g id="Bienvenida" transform="translate(-989.000000, -343.000000)">
            <g id="Cards" transform="translate(245.000000, 286.000000)">
                <g id="3" transform="translate(650.000000, 0.000000)">
                    <g transform="translate(65.000000, 43.000000)">
                        <path d="M65.1139586,78.152419 C85.9176654,95.1806488 72.6574923,132.776392 96.4057064,130.543942 C120.155333,128.310086 143.678894,49.1024419 121.534335,26.2574645 C99.3883622,3.41530057 17.3985293,30.452275 18.4016964,55.4059114 C19.4062764,80.3609544 44.3116648,61.1227825 65.1139586,78.152419" id="Fill-1" fill-opacity="0.08" fill="#FF5400" transform="translate(74.392570, 74.139166) rotate(66.000000) translate(-74.392570, -74.139166) "></path>
                        <g id="Group-2" transform="translate(44.000000, 27.000000)">
                            <path d="M23.5645595,19.2034597 C22.9806231,18.9434513 22.3318048,18.9318954 21.737995,19.1731254 C18.1102547,20.6349502 14.3880125,21.9826602 10.6728227,23.1758097 C9.67279633,23.4993757 9,24.4354058 9,25.507218 L9,33.5559214 C9,34.9036314 10.0719606,36 11.3879333,36 C12.703906,36 13.7758666,34.9036314 13.7758666,33.5559214 L13.7758666,27.2940533 C17.0552198,26.2005737 20.3204682,24.9987572 23.4883939,23.7203828 C24.7112752,23.2263669 25.3163688,21.8049878 24.8339865,20.5497252 C24.5998478,19.9415946 24.1499064,19.4649126 23.5645595,19.2034597" id="Fill-12" fill="#0066FF"></path>
                            <path d="M27.4831656,16.2183257 C26.2323963,16.768469 25.6605322,18.2433839 26.2074688,19.5044362 C26.6019084,20.4129838 27.4963625,21 28.4861272,21 C28.8277793,21 29.1620999,20.9292041 29.5198815,20.7728631 C30.7706508,20.2212449 31.3395823,18.7463299 30.7911793,17.4852776 C30.2427763,16.2271752 28.7705929,15.6519583 27.4831656,16.2183257" id="Fill-14" fill="#0066FF"></path>
                            <path d="M65.914979,64.3939278 C64.8085742,63.662603 63.3182569,63.9797009 62.594348,65.0952568 C60.9226993,67.676319 58.9606371,70.1459684 56.7648273,72.4385001 C54.9571801,74.3239468 52.9993678,76.0808402 50.9423899,77.660616 C49.8912345,78.4690726 49.6886534,79.9888569 50.4904781,81.0487065 C50.9480565,81.6543348 51.6436324,82 52.3972909,82 C52.9285352,82 53.4300298,81.8285958 53.8507753,81.5057844 C56.1032511,79.7731732 58.2438114,77.8534458 60.2115403,75.7980232 C62.6198477,73.2869511 64.7731579,70.574479 66.6105549,67.7405956 C67.3330471,66.6250396 67.0213838,65.1252525 65.914979,64.3939278" id="Fill-16" fill="#0066FF"></path>
                            <path d="M46.3322112,80.3378558 L46.214196,80.4076788 C45.0527543,81.0884537 44.6540934,82.5983775 45.3276432,83.7708231 C45.7622844,84.530149 46.5696807,85 47.4375238,85 C47.8635297,85 48.2852179,84.8850829 48.6565339,84.6683404 L48.794698,84.5868802 C49.3559895,84.253766 49.7560897,83.7213651 49.9201595,83.0856843 C50.0842293,82.4485488 49.9935592,81.7852297 49.6654195,81.2179173 C48.9861128,80.0469263 47.4907745,79.6498077 46.3322112,80.3378558" id="Fill-18" fill="#0066FF"></path>
                            <path d="M62.5890614,37.5159611 L37.5208227,62.5844691 C36.6946606,63.4135064 35.2467622,63.4135064 34.4191903,62.5844691 L22.4102337,50.5775279 C21.555875,49.721702 21.555875,48.3301038 22.4102337,47.4742779 C22.8233148,47.0611692 23.3759693,46.8327609 23.9624597,46.8327609 C24.5489502,46.8327609 25.0987851,47.0611692 25.5132759,47.4742779 L34.2824365,56.2454358 C35.1847296,57.1477893 36.7566933,57.1463794 37.6561666,56.2454358 L59.487429,34.414121 C60.3150009,33.5879035 61.7614894,33.5879035 62.5890614,34.414121 C63.4434201,35.2685369 63.4434201,36.6615451 62.5890614,37.5159611 M65.9627915,31.0387549 C64.6474174,29.7247026 62.8992246,29 61.0382452,29 C59.1772658,29 57.4276631,29.7247026 56.112289,31.0387549 L35.9700065,51.1823868 L28.887006,44.1003218 C27.571632,42.7848595 25.8220293,42.0615668 23.9624597,42.0615668 C22.1014803,42.0615668 20.3518777,42.7848595 19.0365036,44.1003218 C16.3211655,46.8172517 16.3211655,51.2345541 19.0365036,53.951484 L31.0440504,65.9612451 C32.3608343,67.2752974 34.1104369,68 35.9700065,68 C37.8295761,68 39.5791787,67.2752974 40.8945528,65.9598351 L65.9642013,40.8899172 C67.2767557,39.5758649 68,37.8261451 68,35.9636311 C68,34.1011171 67.2767557,32.3528072 65.9627915,31.0387549" id="Fill-20" fill="#FF5400"></path>
                            <path d="M77.8976973,20.9724583 L77.8976973,39.6633851 C77.8976973,59.3162931 68.8330582,72.3086806 61.229045,79.7464028 C52.6235002,88.1672641 43.5108328,91.9051673 41.5007063,91.9051673 C39.4891672,91.9051673 30.3764998,88.1672641 21.770955,79.7464028 C14.1669418,72.30727 5.1023027,59.3148825 5.1023027,39.6633851 L5.1023027,20.9738688 C17.9173886,17.3064921 29.8298245,12.2426911 41.5007063,5.49753884 C52.8495158,12.0409853 65.4188097,17.3854817 77.8976973,20.9724583 M81.1226577,16.587122 C67.9445343,12.980398 54.6915431,7.36649047 42.7974709,0.353337647 C41.9965281,-0.117779216 41.0020593,-0.117779216 40.2039417,0.353337647 C27.9609578,7.56960672 15.4241537,12.8802504 1.87734227,16.587122 C0.771278316,16.8875648 0,17.8975039 0,19.0428539 L0,39.6633851 C0,61.0836866 9.89807172,75.2623294 18.2013207,83.385569 C27.1614276,92.15201 37.6655037,97 41.5007063,97 C45.3359089,97 55.8385724,92.15201 64.8015045,83.385569 C73.1019283,75.2623294 83,61.0836866 83,39.6633851 L83,19.0428539 C83,17.8975039 82.2273091,16.8875648 81.1226577,16.587122" id="Fill-22" fill="#0066FF"></path>
                        </g>
                    </g>
                </g>
            </g>
        </g>
    </g>
</svg>