<svg xmlns="http://www.w3.org/2000/svg" width="33" height="40" viewBox="0 0 33 40">
    <g fill="none" fill-rule="evenodd">
        <path fill="#06F" d="M29.535 10.422l-1.426 1.426a16.726 16.726 0 0 0-.797-.745l1.452-1.452a.547.547 0 0 1 .771.771m-14.274-3.3V5.517h2.624V7.12a16.694 16.694 0 0 0-2.624 0m1.313 30.594c-7.906 0-14.337-6.43-14.337-14.336A14.323 14.323 0 0 1 7.9 11.96a14.312 14.312 0 0 1 10.824-2.759 14.323 14.323 0 0 1 8.62 4.716 14.317 14.317 0 0 1 3.565 9.46c0 7.906-6.432 14.337-14.336 14.337M13.509 1.994h6.13c.3 0 .545.244.545.546v1.005h-7.22V2.54c0-.302.244-.546.545-.546M3.612 9.65a.56.56 0 0 1 .771 0l1.452 1.452c-.273.24-.54.489-.797.745l-1.426-1.425a.547.547 0 0 1 0-.772m25.808 3.677l1.51-1.51a2.523 2.523 0 0 0 0-3.563 2.504 2.504 0 0 0-1.78-.736c-.674 0-1.307.262-1.782.736l-1.63 1.632a16.424 16.424 0 0 0-5.879-2.485V5.518h1.311a.988.988 0 0 0 .987-.987V2.54c0-1.39-1.13-2.52-2.519-2.52H13.51a2.523 2.523 0 0 0-2.52 2.52v1.99c0 .545.444.988.987.988h1.312v1.884A16.424 16.424 0 0 0 7.41 9.887L5.778 8.256a2.5 2.5 0 0 0-1.78-.737 2.5 2.5 0 0 0-1.781.737 2.523 2.523 0 0 0 0 3.562l1.51 1.51a16.364 16.364 0 0 0-3.464 10.05c0 8.994 7.317 16.312 16.31 16.312 8.994 0 16.31-7.318 16.31-16.311a16.36 16.36 0 0 0-3.463-10.05"/>
        <path fill="#FF5400" d="M16.574 23.925a.546.546 0 1 1 0-1.093.546.546 0 0 1 0 1.093m0 1.973a2.521 2.521 0 0 0 2.518-2.519c0-1.011-.609-1.924-1.531-2.317v-5.345a.988.988 0 0 0-.987-.987.988.988 0 0 0-.987.987v5.345a2.524 2.524 0 0 0-1.532 2.317c0 1.39 1.13 2.519 2.519 2.519"/>
        <path fill="#FF5400" d="M24.9 15.148c-.016-.017-.03-.034-.043-.046a.76.76 0 0 0-.049-.045 11.761 11.761 0 0 0-4.922-2.914.979.979 0 0 0-.75.08.982.982 0 0 0-.395 1.338c.125.231.334.4.586.474a9.824 9.824 0 0 1 3.396 1.799l-.346.347a.988.988 0 0 0 0 1.394 1.01 1.01 0 0 0 1.395 0l.348-.347a9.617 9.617 0 0 1 2.143 5.164h-.496a.988.988 0 0 0-.986.987c0 .544.443.987.986.987h.496a9.615 9.615 0 0 1-2.143 5.164l-.348-.348a.988.988 0 0 0-1.395 1.396l.348.348a9.618 9.618 0 0 1-5.165 2.143v-.496a.988.988 0 0 0-.987-.986.988.988 0 0 0-.986.986v.496a9.62 9.62 0 0 1-5.165-2.143l.348-.348a.988.988 0 0 0-1.395-1.396l-.349.348a9.617 9.617 0 0 1-2.143-5.164h.497a.988.988 0 0 0 0-1.974h-.497a9.617 9.617 0 0 1 2.143-5.164l.349.347a1.01 1.01 0 0 0 1.395 0 .988.988 0 0 0 0-1.395l-.346-.346a9.826 9.826 0 0 1 3.395-1.799.98.98 0 0 0 .588-.474.986.986 0 0 0-1.146-1.418 11.733 11.733 0 0 0-4.91 2.902l-.095.095A11.634 11.634 0 0 0 4.86 23.38a11.63 11.63 0 0 0 3.386 8.23l.047.051.042.037a11.637 11.637 0 0 0 8.238 3.395c3.104 0 6.03-1.205 8.227-3.383l.054-.049.038-.042a11.636 11.636 0 0 0 3.395-8.24c0-3.099-1.203-6.021-3.388-8.23z"/>
        <path fill="#FF5400" d="M16.574 13.64a.988.988 0 1 0-.987-.987c0 .543.442.986.987.986"/>
    </g>
</svg>
