<?xml version="1.0" encoding="UTF-8"?>
<svg width="114px" height="108px" viewBox="0 0 114 108" version="1.1" xmlns="http://www.w3.org/2000/svg" xmlns:xlink="http://www.w3.org/1999/xlink">
    <!-- Generator: sketchtool 51.2 (57519) - http://www.bohemiancoding.com/sketch -->
    <title>F6846A80-5C26-4207-8C76-9800C096E3AE</title>
    <desc>Created with sketchtool.</desc>
    <defs></defs>
    <g id="Login" stroke="none" stroke-width="1" fill="none" fill-rule="evenodd">
        <g id="Bienvenida" transform="translate(-342.000000, -353.000000)">
            <g id="Cards" transform="translate(245.000000, 286.000000)">
                <g id="1">
                    <g transform="translate(80.000000, 59.000000)">
                        <path d="M92.9854612,126.108116 C115.957761,123.937849 138.711395,46.9849488 117.291628,24.7902822 C95.8718612,2.59834884 16.5641945,28.8656822 17.5345279,53.1089822 C18.5075945,77.3536488 42.5964612,58.6631155 62.7178945,75.2079822 C82.8406945,91.7528488 70.0145279,128.277016 92.9854612,126.108116 Z" id="Fill-1" fill-opacity="0.08" fill="#FF5400" transform="translate(71.692817, 71.308973) rotate(-67.000000) translate(-71.692817, -71.308973) "></path>
                        <g id="icon" transform="translate(17.000000, 8.000000)">
                            <path d="M45.94857,69.2058033 C45.0206033,70.13787 45.0206033,71.6521367 45.94857,72.5842033 C46.41597,73.0502367 47.0282367,73.28257 47.6391367,73.28257 C48.25277,73.28257 48.8623033,73.0502367 49.3283367,72.5842033 C50.2590367,71.6521367 50.2590367,70.13787 49.3283367,69.2058033 C48.39627,68.2751033 46.88337,68.2751033 45.94857,69.2058033" id="Fill-12" fill="#0066FF"></path>
                            <path d="M100.301723,55.3463 L81.9952233,77.2321 C79.38489,79.7399333 75.9518233,81.1202667 72.3274233,81.1202667 L45.1594567,81.1202667 C42.40699,81.1202667 39.8021233,82.1726 37.8259233,84.0818333 L36.33079,85.5236667 L20.74259,69.9341 C24.4421567,63.1882333 31.37799,59.3274 39.8144233,59.3274 C42.89489,59.3274 45.87559,59.9478667 48.6745233,61.1724 C48.9779233,61.3049667 49.3018233,61.3719333 49.6325567,61.3719333 L72.8385567,61.3719333 C74.90359,61.3719333 76.5832233,63.0502 76.5832233,65.1138667 C76.5832233,67.1789 74.90359,68.8571667 72.8385567,68.8571667 L56.1652233,68.8571667 C54.8477567,68.8571667 53.77629,69.9286333 53.77629,71.2461 C53.77629,72.5635667 54.8477567,73.6336667 56.1652233,73.6336667 L72.8385567,73.6336667 C77.5371567,73.6336667 81.3583567,69.8124667 81.3583567,65.1138667 C81.3583567,64.8077333 81.3392233,64.4906667 81.3050567,64.1695 L89.5597233,55.6825 C94.1804233,50.9333333 94.5330233,50.5725333 94.5849567,50.5069333 C95.9188233,48.9352667 98.28589,48.7343667 99.86439,50.0627667 C101.440157,51.3952667 101.636957,53.7650667 100.301723,55.3463 M34.1960567,92.5223667 L25.99469,100.603467 L6.39669,80.8537667 L14.4395233,72.7890667 C14.9998567,72.2301 15.86359,72.1344333 16.5947567,72.5813333 C16.70819,72.6442 17.0348233,72.9708333 20.1576567,76.1018667 C22.6354233,78.5823667 26.8734567,82.8299667 34.1837567,90.1307 C34.5076567,90.4532333 34.6839567,90.8851 34.6812233,91.3456667 C34.6771233,91.7898333 34.5008233,92.2189667 34.1960567,92.5223667 M102.94349,46.4124 C99.38879,43.4166667 94.02599,43.8430667 91.0056567,47.3472 L79.2099567,59.4722667 C77.58499,57.6395667 75.2821567,56.5968 72.8385567,56.5968 L50.1177233,56.5968 C46.8541233,55.2383333 43.3855233,54.5509 39.8144233,54.5509 C29.6204567,54.5509 21.16899,59.2987 16.58519,67.5848 C14.5693567,67.2855 12.51799,67.9551667 11.0597567,69.4147667 L1.33729,79.1645667 C0.412056667,80.0925333 0.41069,81.6040667 1.33319,82.5347667 L24.2795233,105.656033 C24.7469233,106.1248 25.3619233,106.3585 25.9755567,106.3585 C26.5823567,106.3585 27.18779,106.131633 27.6524567,105.675167 L37.56079,95.9117 C39.2404233,94.2320667 39.8595233,91.7078333 39.16799,89.4255 L41.1428233,87.519 C42.22659,86.4721333 43.65339,85.8967667 45.1594567,85.8967667 L72.3274233,85.8967667 C77.2392233,85.8967667 81.8804233,84.0107667 85.3763567,80.6036667 C85.4419567,80.5558333 85.4419567,80.5558333 88.8695567,76.4558333 L103.953457,58.4199333 C105.421257,56.6842667 106.12509,54.4798333 105.93239,52.2098 C105.741057,49.9384 104.680523,47.8815667 102.94349,46.4124" id="Fill-14" fill="#0066FF"></path>
                            <path d="M63.8247067,5.12389667 C73.8792733,5.12389667 82.0628733,13.3047633 82.0628733,23.35933 C82.0628733,33.4152633 73.8792733,41.5974967 63.8247067,41.5974967 C53.77014,41.5974967 45.5892733,33.4152633 45.5892733,23.35933 C45.5892733,13.3047633 53.77014,5.12389667 63.8247067,5.12389667 M63.8247067,46.42183 C76.54154,46.42183 86.8872067,36.0761633 86.8872067,23.35933 C86.8872067,10.6438633 76.54154,0.299563333 63.8247067,0.299563333 C51.1078733,0.299563333 40.7635733,10.6438633 40.7635733,23.35933 C40.7635733,36.0761633 51.1078733,46.42183 63.8247067,46.42183" id="Fill-16" fill="#FF5400"></path>
                            <path d="M63.89017,29.2081167 C63.1139033,29.2081167 62.25427,28.6969833 61.47527,27.7703833 C60.6197367,26.75085 59.09317,26.6169167 58.07637,27.4751833 C57.0582033,28.3320833 56.9270033,29.8572833 57.7825367,30.87545 C58.85127,32.1450833 60.1250033,33.0798833 61.4780033,33.5869167 L61.4780033,35.75035 C61.4780033,37.0814833 62.5590367,38.1625167 63.89017,38.1625167 C65.2213033,38.1625167 66.3037033,37.0814833 66.3037033,35.75035 L66.3037033,33.5705167 C68.7828367,32.5865167 70.43377,30.1729833 70.43377,27.4915833 C70.43377,23.8835833 67.49817,20.94935 63.89017,20.94935 C62.9458033,20.94935 62.1736367,20.17855 62.1736367,19.23145 C62.1736367,18.28435 62.9458033,17.51355 63.89017,17.51355 C64.5311367,17.51355 65.2199367,17.8524833 65.88277,18.4961833 C66.3447033,18.94445 66.9419367,19.1685833 67.60067,19.1754167 C68.24437,19.1644833 68.8457033,18.90345 69.29397,18.44015 C70.2192033,17.48485 70.1932367,15.95555 69.2393033,15.02895 C68.3373033,14.1570167 67.35057,13.52015 66.3037033,13.13065 L66.3037033,10.9726833 C66.3037033,9.64155 65.2213033,8.55915 63.89017,8.55915 C62.5590367,8.55915 61.4780033,9.64155 61.4780033,10.9726833 L61.4780033,13.15115 C58.99887,14.1365167 57.3493033,16.55005 57.3493033,19.23145 C57.3493033,22.83945 60.2835367,25.7736833 63.89017,25.7736833 C64.83727,25.7736833 65.60807,26.5444833 65.60807,27.4915833 C65.60807,28.4373167 64.83727,29.2081167 63.89017,29.2081167" id="Fill-18" fill="#FF5400"></path>
                        </g>
                    </g>
                </g>
            </g>
        </g>
    </g>
</svg>