<svg xmlns="http://www.w3.org/2000/svg" width="33" height="25" viewBox="0 0 33 25">
    <path fill="#CCC" fill-rule="evenodd" d="M29.844 5.492L13.396 21.858c-.3.3-.73.473-1.18.474-.449 0-.88-.173-1.182-.474l-7.879-7.839a1.66 1.66 0 0 1 0-2.35c.628-.628 1.734-.628 2.363 0l5.753 5.725c.239.237.583.374.944.374.362 0 .705-.137.943-.374L27.481 3.141c.63-.625 1.733-.625 2.363 0a1.659 1.659 0 0 1 0 2.351M33 4.317a4.285 4.285 0 0 0-1.27-3.053A4.325 4.325 0 0 0 28.664 0c-1.16 0-2.25.45-3.069 1.264l-13.38 13.313-4.81-4.786a4.317 4.317 0 0 0-3.068-1.264A4.32 4.32 0 0 0 1.268 9.79a4.31 4.31 0 0 0 0 6.106l7.879 7.84A4.324 4.324 0 0 0 12.215 25c1.159 0 2.249-.45 3.068-1.265L31.731 7.37A4.28 4.28 0 0 0 33 4.317"/>
</svg>
