<svg xmlns="http://www.w3.org/2000/svg" width="71" height="83" viewBox="0 0 71 83">
    <g fill="none" fill-rule="evenodd">
        <path fill="#FF5400" fill-opacity=".08" d="M16.165 38.745C17.443 57.765-8.448 69.25 4.228 80.4c12.677 11.151 65.088-15.323 66.17-37.866C71.477 19.991 17.705-9.088 5.277 3.59c-12.43 12.677 9.61 16.137 10.887 35.155"/>
        <path fill="#67809F" d="M55.687 26.24l-2.496 2.495a29.27 29.27 0 0 0-1.395-1.305l2.54-2.54a.957.957 0 0 1 1.351-.001.957.957 0 0 1 0 1.35m-24.98-5.777v-2.806H35.3v2.806a29.214 29.214 0 0 0-4.592 0m2.297 53.54c-13.835 0-25.09-11.255-25.09-25.089a25.065 25.065 0 0 1 9.913-19.98 25.047 25.047 0 0 1 15.177-5.11 25.065 25.065 0 0 1 18.85 8.533 25.055 25.055 0 0 1 6.239 16.557c0 13.834-11.256 25.089-25.089 25.089m-5.363-62.513h10.726c.527 0 .956.428.956.955v1.76H26.685v-1.76c0-.527.429-.955.956-.955m-17.32 13.4a.98.98 0 0 1 1.35 0l2.54 2.541a29.81 29.81 0 0 0-1.395 1.305l-2.495-2.495a.957.957 0 0 1 0-1.351m45.164 6.436l2.644-2.644a4.414 4.414 0 0 0 0-6.234 4.381 4.381 0 0 0-3.117-1.289 4.38 4.38 0 0 0-3.117 1.289l-2.855 2.856a28.742 28.742 0 0 0-10.287-4.35v-3.297h2.295c.953 0 1.727-.775 1.727-1.727v-3.485a4.414 4.414 0 0 0-4.408-4.41H27.641a4.415 4.415 0 0 0-4.41 4.41v3.485a1.73 1.73 0 0 0 1.727 1.727h2.297v3.297a28.742 28.742 0 0 0-10.287 4.35l-2.856-2.855a4.376 4.376 0 0 0-3.116-1.29c-1.18 0-2.286.458-3.117 1.29a4.414 4.414 0 0 0 0 6.234l2.643 2.643A28.637 28.637 0 0 0 4.46 48.913c0 15.739 12.805 28.544 28.544 28.544s28.542-12.805 28.542-28.544a28.63 28.63 0 0 0-6.06-17.588"/>
        <path fill="#FF5400" d="M33.004 49.869a.956.956 0 0 1 0-1.91.956.956 0 0 1 0 1.91m0 3.452a4.412 4.412 0 0 0 4.408-4.408 4.419 4.419 0 0 0-2.68-4.055v-9.353a1.73 1.73 0 0 0-1.728-1.727 1.73 1.73 0 0 0-1.728 1.727v9.353a4.416 4.416 0 0 0-2.68 4.055 4.412 4.412 0 0 0 4.408 4.408"/>
        <path fill="#FF5400" d="M47.574 34.508l-.073-.08a1.329 1.329 0 0 0-.087-.08 20.583 20.583 0 0 0-8.613-5.098 1.712 1.712 0 0 0-1.315.14c-.405.22-.7.585-.83 1.028-.13.441-.08.909.14 1.313.22.406.584.701 1.027.83a17.192 17.192 0 0 1 5.943 3.148l-.606.607a1.728 1.728 0 0 0-.001 2.44c.652.655 1.79.654 2.442.002l.61-.61a16.83 16.83 0 0 1 3.75 9.039h-.868a1.73 1.73 0 0 0-1.726 1.726 1.73 1.73 0 0 0 1.726 1.727h.868a16.826 16.826 0 0 1-3.75 9.038l-.61-.61a1.73 1.73 0 0 0-2.441 0 1.73 1.73 0 0 0 0 2.444l.608.608a16.832 16.832 0 0 1-9.037 3.752v-.87a1.73 1.73 0 0 0-1.728-1.726 1.73 1.73 0 0 0-1.726 1.727v.869a16.835 16.835 0 0 1-9.038-3.752l.61-.608a1.73 1.73 0 0 0 0-2.444 1.732 1.732 0 0 0-2.444 0l-.609.61a16.83 16.83 0 0 1-3.75-9.038h.869c.95 0 1.725-.775 1.725-1.727 0-.951-.774-1.726-1.725-1.726h-.87a16.83 16.83 0 0 1 3.751-9.039l.61.609c.652.654 1.79.654 2.442 0a1.728 1.728 0 0 0 0-2.442l-.606-.606a17.196 17.196 0 0 1 5.942-3.147c.442-.13.807-.425 1.028-.83a1.725 1.725 0 0 0-2.005-2.48 20.533 20.533 0 0 0-8.592 5.076l-.168.167c-3.832 3.867-5.942 8.987-5.942 14.418 0 5.43 2.11 10.55 5.926 14.403l.081.09.073.064c3.867 3.831 8.988 5.942 14.418 5.942 5.432 0 10.55-2.11 14.398-5.921.032-.03.063-.056.093-.086l.066-.074c3.832-3.866 5.942-8.987 5.942-14.418 0-5.424-2.105-10.54-5.928-14.405z"/>
        <path fill="#FF5400" d="M33.004 31.869a1.73 1.73 0 0 0 1.727-1.727c0-.953-.775-1.727-1.727-1.727-.952 0-1.728.774-1.728 1.727a1.73 1.73 0 0 0 1.728 1.727"/>
    </g>
</svg>
