<?xml version="1.0" encoding="UTF-8"?>
<svg width="110px" height="113px" viewBox="0 0 110 113" version="1.1" xmlns="http://www.w3.org/2000/svg" xmlns:xlink="http://www.w3.org/1999/xlink">
    <!-- Generator: sketchtool 51.2 (57519) - http://www.bohemiancoding.com/sketch -->
    <title>9D9E5F9C-A5D7-41ED-A6D2-38E8B4116D34</title>
    <desc>Created with sketchtool.</desc>
    <defs></defs>
    <g id="Login" stroke="none" stroke-width="1" fill="none" fill-rule="evenodd">
        <g id="Bienvenida" transform="translate(-660.000000, -353.000000)">
            <g id="Cards" transform="translate(245.000000, 286.000000)">
                <g id="2" transform="translate(325.000000, 0.000000)">
                    <g transform="translate(84.000000, 62.000000)">
                        <path d="M54.7997697,70.4023468 C78.0246812,82.4895592 73.0033538,121.069515 95.1413626,114.163409 C117.278354,107.256285 123.660345,26.8570371 97.9858316,9.48593086 C72.3103007,-7.88619303 -0.216026762,34.42363 5.77822103,58.062745 C11.7724688,81.7008424 31.5758759,58.3151344 54.7997697,70.4023468" id="Fill-1" fill="#FF5400" opacity="0.0818638393" transform="translate(60.042877, 60.196625) rotate(6.000000) translate(-60.042877, -60.196625) "></path>
                        <g id="icon" transform="translate(20.000000, 5.000000)">
                            <path d="M77.0722389,61.3873053 C75.9833009,61.3873053 75.0999381,62.2706681 75.0999381,63.3596062 C75.0999381,64.4495619 75.9833009,65.3329248 77.0722389,65.3329248 C78.161177,65.3329248 79.0455575,64.4495619 79.0455575,63.3596062 C79.0455575,62.2706681 78.161177,61.3873053 77.0722389,61.3873053" id="Fill-4" fill="#0066FF"></path>
                            <path d="M13.9405973,61.3873053 C12.8516593,61.3873053 11.9682965,62.2706681 11.9682965,63.3596062 C11.9682965,64.4495619 12.8516593,65.3329248 13.9405973,65.3329248 C15.0295354,65.3329248 15.9139159,64.4495619 15.9139159,63.3596062 C15.9139159,62.2706681 15.0295354,61.3873053 13.9405973,61.3873053" id="Fill-6" fill="#0066FF"></path>
                            <path d="M87.0888496,57.7371239 C87.0888496,68.8829646 78.0211504,77.9506637 66.8753097,77.9506637 L59.5478761,77.9506637 C60.6378319,77.1833186 61.7664602,76.4017257 62.920531,75.6028319 C65.6642478,73.7027876 68.7743363,71.5483186 71.9984071,69.1434956 C72.8715929,68.4921681 73.0517257,67.2566814 72.4003982,66.3824779 C71.7490708,65.509292 70.5125664,65.3291593 69.6393805,65.9815044 C66.4712832,68.3435841 63.5240265,70.3850885 60.6734513,72.3584071 C58.885354,73.5979646 57.1573009,74.7957965 55.5228761,75.9732743 L55.5228761,73.8574779 C55.5228761,65.2365487 62.5368584,58.2235841 71.1577876,58.2235841 L76.9444248,58.2235841 C80.4188496,58.2235841 83.82,57.7086283 87.0888496,56.6899115 L87.0888496,57.7371239 Z M45.6593363,47.9631416 C33.6922124,47.9631416 23.9569027,38.2288496 23.9569027,26.2617257 C23.9569027,14.2956195 33.6922124,4.56030973 45.6593363,4.56030973 C57.6244248,4.56030973 67.3607522,14.2956195 67.3607522,26.2617257 C67.3607522,38.2288496 57.6244248,47.9631416 45.6593363,47.9631416 Z M53.5505752,93.7341593 C56.1223009,93.7341593 58.3154425,95.3838496 59.1296018,97.6797788 L32.1880531,97.6797788 C33.0022124,95.3838496 35.195354,93.7341593 37.7670796,93.7341593 L53.5505752,93.7341593 Z M35.7947788,75.9732743 C34.160354,74.7957965 32.4333186,73.5979646 30.6442035,72.3584071 C27.7936283,70.3850885 24.8463717,68.3435841 21.679292,65.9815044 C20.8050885,65.3291593 19.5696018,65.509292 18.9172566,66.3824779 C18.2659292,67.2566814 18.4460619,68.4921681 19.3192478,69.1434956 C22.5433186,71.5483186 25.6534071,73.7027876 28.3981416,75.6028319 C29.5522124,76.4027434 30.679823,77.1833186 31.7707965,77.9506637 L24.4423451,77.9506637 C13.2965044,77.9506637 4.22880531,68.8829646 4.22880531,57.7371239 L4.22880531,56.6899115 C7.49765487,57.7086283 10.8988053,58.2235841 14.3732301,58.2235841 L20.1598673,58.2235841 C28.7807965,58.2235841 35.7947788,65.2365487 35.7947788,73.8574779 L35.7947788,75.9732743 Z M90.1633186,52.250708 C89.6178319,51.885354 88.9268142,51.814115 88.3182301,52.0614159 C84.7064159,53.5309735 80.8798673,54.2769469 76.9444248,54.2769469 L71.1577876,54.2769469 C60.3610177,54.2769469 51.5772566,63.060708 51.5772566,73.8574779 L51.5772566,78.9520796 C50.0690265,80.1611062 48.7694248,81.3100885 47.6316372,82.4417699 L47.6316372,51.834469 C60.8556195,50.8238938 71.3063717,39.7401327 71.3063717,26.2617257 C71.3063717,12.1207965 59.8012832,0.614690265 45.6593363,0.614690265 C31.5173894,0.614690265 20.0112832,12.1207965 20.0112832,26.2617257 C20.0112832,39.7401327 30.4620354,50.8238938 43.6860177,51.834469 L43.6860177,82.4417699 C42.5482301,81.3100885 41.2486283,80.1611062 39.7403982,78.9520796 L39.7403982,73.8574779 C39.7403982,63.060708 30.9566372,54.2769469 20.1598673,54.2769469 L14.3732301,54.2769469 C10.4377876,54.2769469 6.61123894,53.5309735 3.00044248,52.0614159 C2.39084071,51.814115 1.69982301,51.8843363 1.15535398,52.250708 C0.609867257,52.6180973 0.283185841,53.2317699 0.283185841,53.8881858 L0.283185841,57.7371239 C0.283185841,71.059823 11.1206637,81.8973009 24.4423451,81.8973009 L37.1045575,81.8973009 C40.0599558,84.2512389 42.1279204,86.3110619 43.6860177,88.4584071 L43.6860177,89.7885398 L37.7670796,89.7885398 C33.0032301,89.7885398 29.0179204,93.1825664 28.1019912,97.6797788 L21.9846018,97.6797788 C20.894646,97.6797788 20.0112832,98.5631416 20.0112832,99.6530973 C20.0112832,100.743053 20.894646,101.625398 21.9846018,101.625398 L69.3330531,101.625398 C70.4230088,101.625398 71.3063717,100.743053 71.3063717,99.6530973 C71.3063717,98.5631416 70.4230088,97.6797788 69.3330531,97.6797788 L63.2156637,97.6797788 C62.2997345,93.1825664 58.3144248,89.7885398 53.5505752,89.7885398 L47.6316372,89.7885398 L47.6316372,88.4584071 C49.1897345,86.3110619 51.2576991,84.2512389 54.2120796,81.8973009 L66.8753097,81.8973009 C80.1969912,81.8973009 91.034469,71.059823 91.034469,57.7371239 L91.034469,53.8881858 C91.034469,53.2317699 90.7077876,52.6180973 90.1633186,52.250708 Z" id="Fill-8" fill="#0066FF"></path>
                            <path d="M45.5842212,33.7076195 C44.6520088,33.7076195 43.6220973,33.0939469 42.6878496,31.9836372 C41.6620088,30.7603628 39.8301504,30.6005841 38.6089115,31.6294779 C37.3886903,32.6583717 37.2319646,34.487177 38.2578053,35.7073982 C39.5401062,37.2319115 41.0676726,38.3513805 42.6909027,38.9589469 L42.6909027,41.556115 C42.6909027,43.1518673 43.988469,44.4494336 45.5842212,44.4494336 C47.1799735,44.4494336 48.4795752,43.1518673 48.4795752,41.556115 L48.4795752,38.941646 C51.4543097,37.7590796 53.4327168,34.8647434 53.4327168,31.6488142 C53.4327168,27.3215575 49.9114779,23.8003186 45.5842212,23.8003186 C44.4494867,23.8003186 43.5254159,22.8752301 43.5254159,21.7394779 C43.5254159,20.6037257 44.4494867,19.6796549 45.5842212,19.6796549 C46.3515664,19.6796549 47.1779381,20.0867345 47.9737788,20.8581504 C48.5284248,21.3954956 49.2459027,21.6651858 50.0346195,21.6733274 C50.8070531,21.6600973 51.5286018,21.346646 52.0669646,20.792 C53.1752389,19.6460708 53.1457257,17.8101416 51.9997965,16.6977965 C50.9179823,15.6536372 49.7364336,14.8893451 48.4795752,14.4232389 L48.4795752,11.8331947 C48.4795752,10.2374425 47.1799735,8.93784071 45.5842212,8.93784071 C43.988469,8.93784071 42.6909027,10.2374425 42.6909027,11.8331947 L42.6909027,14.446646 C39.7161681,15.6281947 37.7377611,18.5235487 37.7377611,21.7394779 C37.7377611,26.0677522 41.259,29.5879735 45.5842212,29.5879735 C46.7209912,29.5879735 47.6440442,30.5120442 47.6440442,31.6488142 C47.6440442,32.7835487 46.7209912,33.7076195 45.5842212,33.7076195" id="Fill-11" fill="#FF5400"></path>
                        </g>
                    </g>
                </g>
            </g>
        </g>
    </g>
</svg>