<?xml version="1.0" encoding="utf-8"?>
<!-- Generator: Adobe Illustrator 22.1.0, SVG Export Plug-In . SVG Version: 6.00 Build 0)  -->
<svg version="1.1" id="Capa_1" xmlns="http://www.w3.org/2000/svg" xmlns:xlink="http://www.w3.org/1999/xlink" x="0px" y="0px"
	 viewBox="0 0 41.7 38" style="enable-background:new 0 0 41.7 38;" xml:space="preserve">
<style type="text/css">
	.st0{fill:#0066FF;}
	.st1{fill:#FFFFFF;}
</style>
<g>
	<path class="st0" d="M38,12.1L38,12.1c-1-2.3-2.5-4.4-4.3-6.2c-0.9-0.9-1.9-1.6-3-2.3c-0.3-0.2-0.5-0.3-0.8-0.5l-0.4-0.2
		c-0.1-0.1-0.3-0.2-0.4-0.2l-0.4-0.2c-0.1-0.1-0.3-0.1-0.4-0.2l-0.4-0.2C27.6,2,27.5,2,27.3,1.9c-0.3-0.1-0.6-0.2-0.9-0.3L26,1.5
		c-0.1,0-0.3-0.1-0.5-0.1l-0.5-0.1c-0.2,0-0.3-0.1-0.5-0.1l-0.5-0.1C24,1.1,23.9,1,23.7,1c-1.2-0.2-2.5-0.2-3.7-0.2
		c-2.4,0.1-4.8,0.7-7,1.7c-0.1,0.1-0.3,0.1-0.4,0.2L12.2,3c-0.3,0.1-0.5,0.3-0.8,0.4c-0.3,0.1-0.5,0.3-0.8,0.5
		C10.4,4,10.1,4.2,9.9,4.3C8.9,5,8,5.7,7.1,6.6c-1.7,1.7-3.2,3.6-4.3,5.8C1.7,14.6,1.1,17,1,19.5c-0.1,2.5,0.4,5,1.4,7.3
		c0.5,1.1,1.1,2.2,1.9,3.2c0.2,0.2,0.4,0.5,0.6,0.7c0.2,0.2,0.4,0.5,0.6,0.7c0.2,0.2,0.4,0.4,0.7,0.7l0.7,0.6c0.9,0.8,1.9,1.5,3,2.1
		c1.1,0.6,2.2,1.1,3.3,1.5c2.2,0.8,4.6,1.1,7,1.2c2.4,0,4.7-0.4,7-1.1c1.1-0.4,2.3-0.9,3.3-1.5c1.1-0.6,2.1-1.3,3-2.1
		c1.9-1.6,3.5-3.6,4.5-5.9c1-2.3,1.6-4.8,1.6-7.4C39.5,17,39,14.4,38,12.1z"/>
	<path class="st1" d="M7.7,24.3v-7.6c0-0.3,0.3-0.6,0.6-0.6h1.8c0.3,0,0.6,0.3,0.6,0.6v7.6c0,0.3-0.3,0.6-0.6,0.6H8.3
		C8,24.8,7.7,24.6,7.7,24.3 M15.3,22.8c0.2,0,0.4-0.1,0.6-0.2c0.2-0.1,0.3-0.2,0.5-0.4v-1.2c-0.7,0.1-1.2,0.3-1.4,0.5
		c-0.3,0.2-0.4,0.4-0.4,0.7C14.5,22.6,14.7,22.8,15.3,22.8 M14.2,25c-0.4,0-0.8-0.1-1.1-0.2c-0.3-0.1-0.6-0.3-0.8-0.6
		c-0.2-0.2-0.4-0.5-0.5-0.8c-0.1-0.3-0.2-0.7-0.2-1c0-0.9,0.4-1.6,1.1-2.1c0.7-0.5,1.9-0.8,3.5-1c-0.1-0.6-0.5-0.9-1.2-0.9
		c-0.3,0-0.6,0.1-1,0.2c-0.2,0.1-0.4,0.2-0.7,0.3c-0.3,0.1-0.6,0-0.8-0.2l-0.5-0.9c-0.2-0.3,0-0.6,0.2-0.8c0,0,0,0,0,0
		c0.4-0.2,0.9-0.4,1.3-0.5c0.6-0.2,1.3-0.3,1.9-0.3c1.1,0,2,0.3,2.6,0.9c0.6,0.6,0.9,1.6,0.9,3v4.2c0,0.3-0.3,0.6-0.6,0.6h-1.4
		c-0.3,0-0.5-0.2-0.6-0.4L16.7,24h-0.1c-0.3,0.3-0.7,0.5-1.1,0.7C15.1,24.9,14.7,25,14.2,25 M28.5,22.8c0.2,0,0.4-0.1,0.6-0.2
		c0.2-0.1,0.3-0.2,0.5-0.4v-1.2c-0.7,0.1-1.2,0.3-1.4,0.5c-0.3,0.2-0.4,0.4-0.4,0.7C27.7,22.6,28,22.8,28.5,22.8 M27.5,25
		c-0.4,0-0.8-0.1-1.1-0.2c-0.3-0.1-0.6-0.3-0.8-0.6c-0.2-0.2-0.4-0.5-0.5-0.8c-0.1-0.3-0.2-0.7-0.2-1c0-0.9,0.4-1.6,1.1-2.1
		c0.7-0.5,1.9-0.8,3.5-1c-0.1-0.6-0.5-0.9-1.2-0.9c-0.3,0-0.6,0.1-1,0.2c-0.2,0.1-0.4,0.2-0.7,0.3c-0.3,0.1-0.6,0-0.8-0.2l-0.5-0.9
		c-0.2-0.3,0-0.6,0.2-0.8c0,0,0,0,0,0c0.4-0.2,0.9-0.4,1.3-0.5c0.6-0.2,1.3-0.3,1.9-0.3c1.1,0,2,0.3,2.6,0.9c0.6,0.6,0.9,1.6,0.9,3
		v4.2c0,0.3-0.3,0.6-0.6,0.6h-1.4c-0.3,0-0.5-0.2-0.6-0.4L29.9,24h-0.1c-0.3,0.3-0.7,0.5-1.1,0.7C28.4,24.9,27.9,25,27.5,25
		 M29.1,14.4c-0.4-0.4-0.4-1.1-0.1-1.5l1.3-1.5c0.4-0.5,1.1-0.5,1.6-0.1c0,0,0,0,0.1,0.1l0.3,0.2c0.4,0.4,0.4,1.1,0,1.6
		c0,0-0.1,0.1-0.1,0.1l-1.5,1.3C30.1,14.8,29.5,14.8,29.1,14.4 M23.3,16.1h-1.8c-0.3,0-0.6,0.3-0.6,0.6v7.7c0,0.7-0.4,1.1-1.2,1.1
		h-0.1c-0.3,0-0.6,0.3-0.6,0.6c0,0,0,0,0,0v1.4c0,0.3,0.3,0.6,0.6,0.6c0,0,0,0,0,0h1.3l0,0c0.5,0,0.9-0.1,1.3-0.3
		c0.4-0.2,0.8-0.5,1-0.8c0.3-0.3,0.4-0.7,0.5-1.2c0.1-0.4,0.2-0.9,0.2-1.4v-7.7C23.8,16.4,23.6,16.1,23.3,16.1 M10.7,13.1
		c0,0.8-0.7,1.5-1.5,1.5c-0.8,0-1.5-0.7-1.5-1.5c0,0,0,0,0,0c0-0.8,0.7-1.5,1.5-1.5C10,11.6,10.7,12.3,10.7,13.1 M23.9,13.1
		c0,0.8-0.7,1.5-1.5,1.6c-0.8,0-1.5-0.7-1.6-1.5c0,0,0,0,0-0.1c0-0.8,0.7-1.5,1.5-1.5C23.2,11.6,23.9,12.3,23.9,13.1"/>
</g>
</svg>
