<svg xmlns="http://www.w3.org/2000/svg" width="55" height="38" viewBox="0 0 55 38">
    <g fill="#06F" fill-rule="evenodd">
        <path d="M.157 29.17V12.538c0-.697.564-1.262 1.261-1.262H5.33c.697 0 1.262.565 1.262 1.262V29.17c0 .697-.565 1.261-1.262 1.261H1.418A1.261 1.261 0 0 1 .157 29.17M16.778 25.942c.524 0 .955-.118 1.291-.356.336-.237.68-.542 1.028-.915v-2.545c-1.546.224-2.607.56-3.18 1.01-.573.448-.86.936-.86 1.459 0 .897.574 1.347 1.72 1.347m-2.244 4.939c-.872 0-1.66-.157-2.356-.468a5.383 5.383 0 0 1-1.778-1.254 5.268 5.268 0 0 1-1.103-1.833 6.526 6.526 0 0 1-.374-2.207c0-1.946.797-3.473 2.394-4.584 1.596-1.108 4.191-1.851 7.781-2.225-.15-1.297-1.023-1.946-2.618-1.946-.673 0-1.384.131-2.132.394-.456.159-.956.367-1.495.625a1.267 1.267 0 0 1-1.67-.536l-1.076-2.009a1.269 1.269 0 0 1 .534-1.722c.953-.496 1.916-.899 2.884-1.204a14.017 14.017 0 0 1 4.226-.636c2.42 0 4.321.692 5.706 2.077 1.384 1.384 2.077 3.61 2.077 6.678v9.139c0 .697-.565 1.261-1.262 1.261H21.28a1.262 1.262 0 0 1-1.225-.956l-.208-.84h-.15a10.43 10.43 0 0 1-2.376 1.627c-.836.412-1.766.619-2.788.619M45.788 25.942c.524 0 .955-.118 1.291-.356.336-.237.68-.542 1.028-.915v-2.545c-1.546.224-2.607.56-3.18 1.01-.573.448-.86.936-.86 1.459 0 .897.575 1.347 1.721 1.347m-2.245 4.939c-.872 0-1.658-.157-2.356-.468a5.383 5.383 0 0 1-1.778-1.254 5.268 5.268 0 0 1-1.103-1.833 6.526 6.526 0 0 1-.373-2.207c0-1.946.798-3.473 2.394-4.584 1.596-1.108 4.19-1.851 7.78-2.225-.149-1.297-1.023-1.946-2.618-1.946-.673 0-1.384.131-2.132.394-.456.159-.955.367-1.495.625a1.267 1.267 0 0 1-1.67-.536l-1.076-2.009a1.269 1.269 0 0 1 .534-1.722c.953-.496 1.916-.899 2.884-1.204a14.017 14.017 0 0 1 4.226-.636c2.42 0 4.322.692 5.706 2.077 1.385 1.384 2.077 3.61 2.077 6.678v9.139c0 .697-.565 1.261-1.262 1.261H50.29a1.262 1.262 0 0 1-1.224-.956l-.209-.84h-.15a10.43 10.43 0 0 1-2.376 1.627c-.835.412-1.766.619-2.788.619M47.056 7.465a2.43 2.43 0 0 1-.141-3.28L49.702.865a2.432 2.432 0 0 1 3.564-.17l.55.542a2.43 2.43 0 0 1-.148 3.601l-3.34 2.775a2.43 2.43 0 0 1-3.272-.149M34.34 11.277h-3.912c-.695 0-1.262.564-1.262 1.261v16.92c0 1.535-.826 2.377-2.728 2.377h-.31a1.26 1.26 0 0 0-1.261 1.26v3.108a1.26 1.26 0 0 0 1.261 1.261h2.845l.008-.026c1.114-.058 2.074-.261 2.86-.629.936-.435 1.684-1.028 2.246-1.778a6.774 6.774 0 0 0 1.177-2.56c.226-.961.338-1.965.338-3.013v-16.92c0-.697-.565-1.261-1.262-1.261M6.749 4.749a3.374 3.374 0 1 1-6.748 0 3.374 3.374 0 0 1 6.748 0M35.75 4.749a3.374 3.374 0 1 1-6.747 0 3.374 3.374 0 0 1 6.748 0"/>
    </g>
</svg>
