<?xml version="1.0" encoding="UTF-8"?>
<svg width="105px" height="31px" viewBox="0 0 105 31" version="1.1" xmlns="http://www.w3.org/2000/svg" xmlns:xlink="http://www.w3.org/1999/xlink">
    <!-- Generator: sketchtool 51.2 (57519) - http://www.bohemiancoding.com/sketch -->
    <title>7089F6C9-D0D8-4344-87D6-841F414FF691</title>
    <desc>Created with sketchtool.</desc>
    <defs></defs>
    <g id="Flujo-Pyme-V02" stroke="none" stroke-width="1" fill="none" fill-rule="evenodd">
        <g id="Dashboard-Pyme-Personalizado" transform="translate(-668.000000, -1417.000000)" fill="#333333">
            <g id="Cierre-Copy-9" transform="translate(0.000000, 1348.000000)">
                <g id="Publicidad-Mariva">
                    <g transform="translate(491.000000, 69.000000)" id="mariva">
                        <g transform="translate(177.000000, 0.000000)">
                            <path d="M6.42305118,-6.797455e-05 C3.26767257,-6.797455e-05 0.0235871689,2.50683343 0.0001359491,5.61734884 L0.0001359491,30.9837515 L12.7851292,30.9837515 L12.7851292,5.61734884 C12.7752729,2.63666482 9.57469119,-6.797455e-05 6.42305118,-6.797455e-05" id="Fill-1"></path>
                            <path d="M21.5636685,-6.797455e-05 C18.40795,-6.797455e-05 15.1631848,2.50683343 15.1424526,5.61734884 L15.1424526,30.9837515 L27.9274458,30.9837515 L27.9274458,5.61734884 C27.9182693,2.63666482 24.7180275,-6.797455e-05 21.5636685,-6.797455e-05" id="Fill-3"></path>
                            <path d="M36.7069028,-6.797455e-05 C33.5508444,-6.797455e-05 30.3043799,2.50683343 30.2836477,5.61734884 L30.2836477,30.9837515 L43.0676213,30.9837515 L43.0696605,5.61734884 C43.0591245,2.63666482 39.8602421,-6.797455e-05 36.7069028,-6.797455e-05" id="Fill-5"></path>
                            <polygon id="Fill-7" points="82.9951582 30.9464335 85.8915538 30.9321589 85.8915538 17.3253533 82.9951582 17.339628"></polygon>
                            <path d="M68.9297624,24.3109619 L66.588379,24.3109619 L66.588379,21.4519523 C66.588379,20.4520467 67.3401775,20.1736909 67.7391881,20.1736909 C68.1014925,20.1736909 68.9297624,20.4520467 68.9297624,21.4519523 L68.9297624,24.3109619 Z M67.7391881,17.2973478 C66.4796197,17.2973478 63.6787284,17.9118377 63.6787284,21.4519523 L63.6787284,30.9320229 L66.588379,30.9320229 L66.588379,27.0717482 L68.9297624,27.0717482 L68.9297624,30.9320229 L71.8390731,30.9320229 L71.8390731,21.4519523 C71.8390731,17.9067396 68.9807433,17.2973478 67.7391881,17.2973478 Z" id="Fill-9"></path>
                            <path d="M101.261007,24.3109619 L98.9175848,24.3109619 L98.9175848,21.4519523 C98.9175848,20.4520467 99.6707428,20.1723314 100.070433,20.1723314 C100.431378,20.1723314 101.261007,20.4520467 101.261007,21.4519523 L101.261007,24.3109619 Z M100.070433,17.2973478 C98.8088255,17.2973478 96.0075943,17.9118377 96.0075943,21.4519523 L96.0075943,30.9320229 L98.9175848,30.9320229 L98.9175848,27.0717482 L101.261007,27.0717482 L101.261007,30.9320229 L104.170318,30.9320229 L104.170318,21.4519523 C104.170318,17.9053801 101.309949,17.2973478 100.070433,17.2973478 Z" id="Fill-11"></path>
                            <path d="M58.4542724,17.2972458 C57.0706505,17.2972458 56.2906425,17.8699314 55.6499824,18.3447336 C55.0422899,17.9056181 54.1970264,17.2972458 52.8460322,17.2972458 C52.4748911,17.2972458 48.9606069,17.2972458 48.9606069,21.4508307 L48.9606069,30.9319209 L51.8682183,30.9319209 L51.8682183,21.4508307 C51.8682183,20.3866891 52.7736393,20.1661117 53.0458774,20.1661117 C53.3228737,20.1661117 54.2123206,20.373774 54.2123206,21.4508307 L54.2123206,30.9319209 L57.122651,30.9319209 L57.122651,21.4508307 C57.122651,20.4522846 57.8734299,20.1729092 58.2738,20.1729092 C58.6357645,20.1729092 59.4633546,20.4522846 59.4633546,21.4508307 L59.4633546,30.9319209 L62.373685,30.9319209 L62.373685,21.4508307 C62.373685,17.9056181 59.8056065,17.2972458 58.4542724,17.2972458" id="Fill-13"></path>
                            <path d="M78.8650585,22.077726 C78.8650585,22.6289996 78.4014721,23.2040643 77.5273194,23.2040643 L75.9132637,23.2040643 L75.9132637,19.9630377 L77.5273194,19.9630377 C78.5251858,19.9630377 78.8650585,20.7484837 78.8650585,21.2803845 L78.8650585,22.077726 Z M81.6832834,21.3871046 C81.6832834,20.1282159 81.0657346,17.3256252 77.5273194,17.3256252 L73.0596921,17.3256252 L73.0596921,30.9327706 L75.9132637,30.9327706 L75.9132637,25.3513803 L78.9170591,30.9327706 L81.7719902,30.9327706 L79.1848788,25.3778904 C81.1629382,24.3096703 81.6832834,23.092586 81.6832834,21.3871046 Z" id="Fill-15"></path>
                            <path d="M91.7807329,23.8476133 C91.676052,24.7462369 91.2593681,27.4264734 91.2593681,27.4264734 L91.2175637,27.4264734 C91.2175637,27.4264734 90.8015595,24.7462369 90.6972185,23.8476133 L89.782621,17.3495862 L87.0245536,17.3495862 L89.1769677,30.9723658 L93.2795717,30.9723658 L95.452718,17.3495862 L92.6943108,17.3495862 L91.7807329,23.8476133 Z" id="Fill-17"></path>
                            <path d="M53.3130513,4.34459336 C54.3826309,4.34459336 54.6032083,5.27244597 54.6032083,5.54978213 C54.6032083,5.84037334 54.3969055,6.74681396 53.3130513,6.74681396 L51.9426844,6.74681396 L51.9426844,4.34459336 L53.3130513,4.34459336 Z M53.3130513,12.1334572 L51.9426844,12.1334572 L51.9426844,9.72987709 L53.3130513,9.72987709 C54.3197544,9.72987709 54.5981102,10.504787 54.5981102,10.9122944 C54.5981102,11.2851348 54.3197544,12.1334572 53.3130513,12.1334572 Z M53.3130513,15.1168602 C56.8708393,15.1168602 57.4843096,12.4855653 57.4843096,11.100244 C57.4843096,9.67821643 56.906186,8.88121483 56.4330832,8.22526042 C56.8708393,7.59887494 57.4843096,6.73287918 57.4843096,5.34551861 C57.4843096,4.965201 57.4843096,1.36085049 53.3130513,1.36085049 L48.9606409,1.36085049 L48.9606409,15.1168602 L48.9626801,15.1168602 L53.3130513,15.1168602 Z" id="Fill-19"></path>
                            <path d="M75.5997651,15.1177778 L75.5997651,5.53098717 C75.5997651,1.94770877 72.7557099,1.33151947 71.518913,1.33151947 C70.2675015,1.33151947 67.4791855,1.95144737 67.4791855,5.53098717 L67.4791855,15.1177778 L70.3728621,15.1177778 L70.3728621,5.53098717 C70.3728621,4.52224485 71.1239808,4.23947072 71.518913,4.23947072 C71.8781585,4.23947072 72.7037094,4.52224485 72.7037094,5.53098717 L72.7037094,15.1177778 L75.5997651,15.1177778 Z" id="Fill-21"></path>
                            <path d="M61.1525222,8.42622718 L61.1525222,5.53085122 C61.1525222,4.52108928 61.8995625,4.23933477 62.2975535,4.23933477 C62.659518,4.23933477 63.48201,4.52108928 63.48201,5.53085122 L63.48201,8.42622718 L61.1525222,8.42622718 Z M66.3780657,15.120021 L66.3780657,5.53085122 C66.3780657,1.94689307 63.5323112,1.33036391 62.2975535,1.33036391 C61.0454623,1.33036391 58.257826,1.95369053 58.257826,5.53085122 L58.257826,15.120021 L61.1525222,15.120021 L61.1525222,11.2138635 L63.48201,11.2138635 L63.48201,15.120021 L66.3780657,15.120021 Z" id="Fill-23"></path>
                            <path d="M87.1154356,5.53098717 C87.1154356,4.52122523 87.8641752,4.23947072 88.2608067,4.23947072 C88.6210718,4.23947072 89.4479822,4.52122523 89.4479822,5.53098717 L89.4479822,10.9200095 C89.4479822,11.9287518 88.6210718,12.2094867 88.2608067,12.2094867 C87.8641752,12.2094867 87.1154356,11.9287518 87.1154356,10.9200095 L87.1154356,5.53098717 Z M88.2608067,15.1177778 C89.4976037,15.1177778 92.3416588,14.502948 92.3416588,10.9200095 L92.3416588,5.53098717 C92.3416588,1.94804864 89.4976037,1.33151947 88.2608067,1.33151947 C87.0059965,1.33151947 84.2166609,1.95348661 84.2166609,5.53098717 L84.2166609,10.9200095 C84.2166609,14.4958107 87.0059965,15.1177778 88.2608067,15.1177778 Z" id="Fill-25"></path>
                            <path d="M80.8933511,15.1167922 L83.5086719,15.1167922 L83.5086719,12.1734942 L81.1778246,12.1734942 C80.1823373,12.1734942 79.90806,11.41014 79.90806,11.0070509 L79.90806,5.51640663 C79.90806,5.14730482 80.1823373,4.308159 81.1778246,4.308159 L83.5086719,4.308159 L83.5086719,1.36078252 L80.8933511,1.36078252 C77.3613935,1.36078252 76.7543808,4.25649835 76.7543808,5.51640663 L76.7543808,11.0070509 C76.7543808,12.2825933 77.3668315,15.1167922 80.8933511,15.1167922" id="Fill-27"></path>
                        </g>
                    </g>
                </g>
            </g>
        </g>
    </g>
</svg>