<svg xmlns="http://www.w3.org/2000/svg" width="32" height="28" viewBox="0 0 32 28">
    <path fill="#CCC" fill-rule="evenodd" d="M22.43 8.692l3.38-5.5 3.383 5.5h-6.762zm-.92 1.764h7.33L17.634 23.699l3.875-13.243zm-9.26 0h7.5l-3.751 12.813-3.749-12.813zm-1.761 0l3.875 13.242L3.16 10.456h7.33zm-.901-1.764H2.809l3.398-5.504 3.38 5.504zm1.533-.763L7.756 2.454h6.73L11.12 7.929zm6.39-5.476h6.748l-3.372 5.49-3.375-5.49zm1.833 6.24h-6.69L16 3.25l3.345 5.442zm12.26-.652l-4.197-6.826A2.504 2.504 0 0 0 25.268 0H6.745c-.87 0-1.669.453-2.136 1.212L.397 8.039a2.716 2.716 0 0 0 .23 3.15l13.466 15.915c.48.569 1.174.896 1.906.896.73 0 1.425-.326 1.907-.895l13.465-15.917a2.713 2.713 0 0 0 .234-3.147z"/>
</svg>
