<svg xmlns="http://www.w3.org/2000/svg" width="19" height="35" viewBox="0 0 19 35">
    <path fill="#CCC" fill-rule="evenodd" d="M10.688 31.693a1.464 1.464 0 0 1-2.908.005l-.13-1.13-1.055-.409c-2.3-.89-3.977-2.884-4.483-5.332a1.496 1.496 0 0 1 .3-1.247 1.442 1.442 0 0 1 1.124-.539c.701 0 1.303.48 1.43 1.142a4.358 4.358 0 0 0 5.206 3.435c1.64-.343 2.969-1.681 3.31-3.33a4.43 4.43 0 0 0-.873-3.7 4.337 4.337 0 0 0-3.377-1.617c-3.52-.02-6.516-2.566-7.124-6.054-.593-3.41 1.3-6.803 4.499-8.07l1.047-.416.125-1.125a1.464 1.464 0 0 1 2.909-.006l.129 1.131 1.055.409c2.3.89 3.976 2.884 4.482 5.332.093.444-.016.899-.298 1.247a1.444 1.444 0 0 1-1.126.539c-.7 0-1.302-.48-1.43-1.142A4.358 4.358 0 0 0 8.294 7.38c-1.638.344-2.968 1.681-3.31 3.33-.274 1.326.044 2.675.875 3.701a4.331 4.331 0 0 0 3.377 1.616c3.52.022 6.515 2.567 7.122 6.056.594 3.408-1.298 6.803-4.498 8.07l-1.047.415-.125 1.125zm-1.173-17.94a2.01 2.01 0 0 1-1.567-.735c-.388-.472-.529-1.078-.398-1.706A1.97 1.97 0 0 1 9.5 9.784c.955 0 1.78.674 1.961 1.601.338 1.729 1.892 2.983 3.695 2.983a3.751 3.751 0 0 0 2.916-1.377 3.732 3.732 0 0 0 .768-3.146 9.437 9.437 0 0 0-5.635-6.807A3.763 3.763 0 0 0 9.5 0a3.76 3.76 0 0 0-3.707 3.052C1.748 4.767-.621 9.076.143 13.403c.796 4.518 4.725 7.816 9.342 7.842.615 0 1.185.268 1.567.735.388.474.529 1.08.397 1.706a1.966 1.966 0 0 1-1.949 1.53c-.955 0-1.78-.675-1.961-1.603-.338-1.728-1.892-2.982-3.696-2.982a3.753 3.753 0 0 0-2.914 1.377 3.73 3.73 0 0 0-.77 3.145 9.434 9.434 0 0 0 5.637 6.808A3.764 3.764 0 0 0 9.5 35a3.76 3.76 0 0 0 3.706-3.053c4.046-1.715 6.414-6.024 5.652-10.351-.796-4.517-4.726-7.815-9.343-7.843z"/>
</svg>
