<svg xmlns="http://www.w3.org/2000/svg" width="55" height="53" viewBox="0 0 55 53">
    <g fill="#FFF" fill-rule="evenodd">
        <path d="M38.177 30.479c0 .582.373.875 1.119.875.34 0 .62-.078.839-.23.218-.155.44-.354.668-.598v-1.652c-1.005.146-1.694.364-2.066.657-.373.29-.56.607-.56.948"/>
        <path d="M44.986 33.452a.819.819 0 0 1-.82.82h-1.944a.82.82 0 0 1-.796-.62l-.136-.548h-.097a6.829 6.829 0 0 1-1.545 1.058 4.036 4.036 0 0 1-1.811.401 3.732 3.732 0 0 1-1.533-.303 3.513 3.513 0 0 1-1.154-.815 3.418 3.418 0 0 1-.718-1.19 4.242 4.242 0 0 1-.243-1.437c0-1.264.519-2.257 1.556-2.978 1.037-.722 2.724-1.204 5.058-1.448-.097-.842-.665-1.264-1.702-1.264-.437 0-.9.085-1.386.256a9.652 9.652 0 0 0-.972.406.824.824 0 0 1-1.085-.348l-.7-1.306a.825.825 0 0 1 .347-1.12 11.634 11.634 0 0 1 1.875-.782 9.116 9.116 0 0 1 2.748-.413c1.573 0 2.809.45 3.708 1.35.9.9 1.35 2.346 1.35 4.341v5.94zM40.028 17.21l1.812-2.156a1.58 1.58 0 0 1 2.316-.11l.358.352a1.58 1.58 0 0 1-.097 2.34l-2.17 1.804a1.579 1.579 0 0 1-2.22-2.23zm-9.451 2.561a2.193 2.193 0 1 1 0-4.386 2.193 2.193 0 0 1 0 4.386zm2.097 13.868c0 .681-.073 1.334-.22 1.96a4.424 4.424 0 0 1-.765 1.664 3.78 3.78 0 0 1-1.46 1.155c-.511.238-1.135.371-1.86.41l-.003.016h-1.85a.821.821 0 0 1-.82-.82v-2.02c0-.453.368-.82.82-.82h.202c1.236 0 1.773-.547 1.773-1.545V22.64a.82.82 0 0 1 .82-.819h2.543c.453 0 .82.366.82.82v10.998zm-9.31.632a.82.82 0 0 1-.795-.62l-.136-.547h-.097a6.829 6.829 0 0 1-1.545 1.058 4.036 4.036 0 0 1-1.811.401 3.732 3.732 0 0 1-1.533-.303 3.538 3.538 0 0 1-1.155-.815 3.431 3.431 0 0 1-.717-1.19 4.242 4.242 0 0 1-.243-1.437c0-1.264.518-2.257 1.556-2.978 1.037-.722 2.724-1.204 5.058-1.448-.097-.842-.665-1.264-1.702-1.264-.438 0-.9.085-1.386.256a9.652 9.652 0 0 0-.972.406.823.823 0 0 1-1.085-.348l-.7-1.306a.826.826 0 0 1 .347-1.12 11.634 11.634 0 0 1 1.875-.782 9.111 9.111 0 0 1 2.748-.413c1.572 0 2.809.45 3.708 1.35.9.9 1.35 2.346 1.35 4.341v5.94a.819.819 0 0 1-.82.82h-1.945zm-11.638-14.5a2.193 2.193 0 1 1-.001-4.387 2.193 2.193 0 0 1 0 4.387zm2.09 13.681a.819.819 0 0 1-.818.82h-2.544a.819.819 0 0 1-.82-.82V22.64c0-.453.367-.819.82-.819h2.544c.452 0 .819.366.819.82v10.811zm39.036-17.386a27.141 27.141 0 0 0-6.162-8.829 27.182 27.182 0 0 0-4.232-3.313c-.385-.23-.763-.47-1.152-.69l-.592-.316c-.2-.102-.391-.216-.595-.307l-.606-.286c-.203-.093-.4-.196-.61-.275l-.62-.252c-.207-.08-.41-.172-.622-.242-.422-.144-.838-.3-1.264-.426l-.64-.185c-.215-.058-.425-.128-.643-.174l-.648-.148c-.216-.047-.43-.105-.65-.139L33.164.37c-.218-.035-.433-.083-.653-.106a26.34 26.34 0 0 0-5.251-.22c-3.485.192-6.885 1.055-10.017 2.441-.2.078-.388.18-.582.27l-.58.278c-.383.19-.757.398-1.136.596-.375.205-.736.433-1.105.647-.366.221-.72.461-1.08.691a30.958 30.958 0 0 0-3.983 3.216c-2.47 2.367-4.577 5.155-6.126 8.29C1.11 19.605.15 23.1.019 26.667a23.897 23.897 0 0 0 1.966 10.47 23.314 23.314 0 0 0 2.687 4.624c.267.356.55.7.827 1.045.286.34.59.665.884.995.308.318.619.632.932.943l.98.887a26.204 26.204 0 0 0 4.304 2.976 28.999 28.999 0 0 0 4.712 2.077 31.522 31.522 0 0 0 9.948 1.647 30.979 30.979 0 0 0 9.962-1.614 29.133 29.133 0 0 0 4.722-2.076 26.577 26.577 0 0 0 4.32-2.968c2.693-2.28 4.94-5.18 6.433-8.469 1.493-3.285 2.273-6.91 2.307-10.537a26.094 26.094 0 0 0-2.151-10.6z"/>
        <path d="M19.32 30.479c0 .582.372.875 1.118.875.34 0 .62-.078.84-.23.218-.155.44-.354.667-.598v-1.652c-1.005.146-1.694.364-2.066.657-.373.29-.56.607-.56.948"/>
    </g>
</svg>
