<svg xmlns="http://www.w3.org/2000/svg" width="78" height="83" viewBox="0 0 78 83">
    <g fill="none" fill-rule="evenodd">
        <path fill="#FF5400" fill-opacity=".08" d="M21.165 38.745C22.443 57.765-3.448 69.25 9.228 80.4c12.677 11.151 65.088-15.323 66.17-37.866 1.08-22.543-52.692-51.622-65.12-38.944-12.43 12.677 9.61 16.137 10.887 35.155"/>
        <path fill="#06F" d="M33.133 52.37a1.755 1.755 0 0 0 0 2.472c.342.341.79.511 1.237.511.45 0 .895-.17 1.236-.51a1.75 1.75 0 0 0 0-2.473 1.752 1.752 0 0 0-2.473 0"/>
        <path fill="#06F" d="M72.904 42.229L59.509 58.243a10.162 10.162 0 0 1-7.074 2.845h-19.88c-2.013 0-3.92.77-5.365 2.167l-1.094 1.055L14.69 52.903c2.707-4.936 7.782-7.761 13.955-7.761 2.254 0 4.435.454 6.483 1.35.222.097.459.146.7.146h16.98a2.742 2.742 0 0 1 2.74 2.738 2.742 2.742 0 0 1-2.74 2.739h-12.2a1.75 1.75 0 0 0-1.747 1.748c0 .964.784 1.747 1.748 1.747h12.2a6.24 6.24 0 0 0 6.195-6.925l6.04-6.21c3.38-3.475 3.639-3.739 3.677-3.787a2.752 2.752 0 0 1 3.863-.325 2.747 2.747 0 0 1 .32 3.866m-48.37 27.202l-6.001 5.913-14.34-14.451 5.885-5.901c.41-.409 1.042-.479 1.577-.152.083.046.322.285 2.607 2.576 1.813 1.815 4.914 4.923 10.263 10.265.237.236.366.552.364.889a1.237 1.237 0 0 1-.355.861m50.303-33.739c-2.601-2.192-6.525-1.88-8.735.684l-8.631 8.872a6.213 6.213 0 0 0-4.662-2.104H36.184a19.52 19.52 0 0 0-7.54-1.497c-7.458 0-13.642 3.474-16.996 9.537a4.732 4.732 0 0 0-4.043 1.339L.49 59.657a1.753 1.753 0 0 0-.003 2.466l16.79 16.918c.342.343.792.514 1.24.514.445 0 .888-.166 1.228-.5l7.25-7.144c1.229-1.229 1.682-3.076 1.176-4.746l1.445-1.395a4.21 4.21 0 0 1 2.939-1.187h19.879c3.594 0 6.99-1.38 9.548-3.873.048-.035.048-.035 2.556-3.035l11.037-13.197a6.18 6.18 0 0 0 1.448-4.544 6.197 6.197 0 0 0-2.187-4.242"/>
        <path fill="#FF5400" d="M46.213 5.48c7.357 0 13.345 5.987 13.345 13.344 0 7.358-5.988 13.345-13.345 13.345S32.87 26.182 32.87 18.824c0-7.357 5.986-13.343 13.343-13.343m0 30.218c9.305 0 16.875-7.57 16.875-16.875 0-9.304-7.57-16.873-16.875-16.873S29.34 9.52 29.34 18.824c0 9.305 7.57 16.875 16.874 16.875"/>
        <path fill="#FF5400" d="M46.261 23.104c-.568 0-1.197-.374-1.767-1.052a1.765 1.765 0 1 0-2.702 2.271c.782.93 1.714 1.613 2.704 1.985v1.582a1.766 1.766 0 0 0 3.531 0v-1.595a4.797 4.797 0 0 0 3.022-4.448 4.793 4.793 0 0 0-4.788-4.787 1.259 1.259 0 0 1-1.256-1.256c0-.694.565-1.258 1.256-1.258.47 0 .973.248 1.458.72a1.79 1.79 0 0 0 1.257.496 1.768 1.768 0 0 0 1.199-3.034c-.66-.637-1.382-1.104-2.148-1.389V9.76c0-.973-.792-1.765-1.766-1.765s-1.765.792-1.765 1.766v1.594a4.798 4.798 0 0 0-3.02 4.448 4.792 4.792 0 0 0 4.785 4.787c.693 0 1.257.564 1.257 1.258 0 .692-.564 1.256-1.257 1.256"/>
    </g>
</svg>
