<svg xmlns="http://www.w3.org/2000/svg" width="92" height="82" viewBox="0 0 92 82">
    <g fill="none" fill-rule="evenodd">
        <path fill="#FF5400" fill-opacity=".08" d="M35.402 46.688C51.31 57.19 44.77 84.748 61.32 81.413c16.551-3.336 27.223-61.075 9.939-75.588C53.974-8.685-1.73 16.495.832 34.063c2.562 17.568 18.662 2.125 34.57 12.625"/>
        <path fill="#06F" d="M49.342 54.943l1.325 1.389-4.862 7.281-3.721-3.716 7.258-4.954zM23.31 26.152a15.387 15.387 0 0 1-1.56-6.752v-3.498c0-6.66 5.426-12.077 12.096-12.077h22.603V19.4c0 2.337-.524 4.61-1.561 6.752-.124.258-.19.546-.19.832v4.656c0 4.352-1.753 8.388-4.934 11.367-.394.367-.81.719-1.263 1.064-3.01 2.283-6.623 3.352-10.443 3.11C29.894 46.653 23.5 39.563 23.5 31.04v-4.056c0-.286-.066-.574-.19-.832zm7.196 22.837a18.62 18.62 0 0 0 7.304 2.006c3.486.234 6.83-.435 9.882-1.948v2.39l-8.593 5.866-8.593-5.866V48.99zm1.886 14.623l-4.86-7.28 1.324-1.39 7.257 4.953-3.721 3.717zm35.897-1.77c-.083-.089-1.427-1.509-3.903-2.39l-9.363-3.399a1.922 1.922 0 0 0-.526-1.25l-2.975-3.12V46.55c.292-.243.582-.493.86-.755a19.456 19.456 0 0 0 6.146-14.156v-4.23a19.173 19.173 0 0 0 1.75-8.012V1.912C60.278.857 59.419 0 58.363 0H33.845c-8.783 0-15.926 7.133-15.926 15.9v3.5c0 2.77.59 5.466 1.751 8.01v3.63c0 5.957 2.552 11.556 7.005 15.382v5.26l-2.974 3.121c-.324.34-.51.785-.527 1.25l-9.89 3.592c-.73.265-1.534.685-2.094 1.095-1.262.91-2.366 2.485-2.42 2.563a8.88 8.88 0 0 0-1.359 4.713v8.7a1.915 1.915 0 0 0 3.83 0v-8.7a5.098 5.098 0 0 1 3.35-4.777l10.421-3.784 4.302 6.444a3.653 3.653 0 0 0 2.69 1.613 3.666 3.666 0 0 0 2.954-1.054l2.225-2.223v12.481a1.915 1.915 0 0 0 3.83 0v-12.48l2.225 2.222a3.644 3.644 0 0 0 2.955 1.054 3.654 3.654 0 0 0 2.689-1.612l4.303-6.444 10.42 3.784a5.097 5.097 0 0 1 3.35 4.777v8.7a1.916 1.916 0 0 0 3.83 0v-8.7c0-2.306-.886-4.5-2.497-6.176z"/>
        <path fill="#06F" d="M26.84 24.808a1.915 1.915 0 0 0 1.914-1.912V19.27c2.145-.317 6.219-.773 10.431-.496 5.04.337 8.68 1.589 10.818 3.725.724.723 1.986.723 2.708 0 .362-.361.561-.841.561-1.351 0-.512-.199-.991-.56-1.352-6.281-6.273-19.352-5.087-24.68-4.286a3.636 3.636 0 0 0-3.108 3.618v3.768c0 1.055.859 1.912 1.915 1.912M19.834 71.696a1.916 1.916 0 0 0-1.915 1.913v3.108a1.914 1.914 0 0 0 3.83 0v-3.108a1.916 1.916 0 0 0-1.915-1.913M58.363 71.696a1.916 1.916 0 0 0-1.915 1.913v3.108a1.914 1.914 0 0 0 3.83 0v-3.108a1.916 1.916 0 0 0-1.915-1.913"/>
        <path fill="#F50" d="M70.158 55.705a1.895 1.895 0 0 1-1.894-1.892v-2.336c0-.468-.183-.909-.515-1.24l-4.305-4.298h3.061a1.76 1.76 0 0 0 1.759-1.756l.01-2.394c0-1.044.848-1.893 1.894-1.893h15.456c1.045 0 1.895.849 1.895 1.892v12.025c0 1.043-.85 1.892-1.894 1.892H70.158zm15.466-19.318H70.168c-2.983 0-5.41 2.424-5.41 5.401l-.01.64h-5.547a1.75 1.75 0 0 0-1.756 1.755c0 .469.183.91.513 1.24l6.79 6.78v1.611c0 2.977 2.427 5.401 5.41 5.401h15.466c2.983 0 5.41-2.424 5.41-5.402V41.788c0-2.977-2.427-5.401-5.41-5.401z"/>
        <path fill="#F50" d="M71.074 49.101a1.834 1.834 0 0 1-.535-1.288c0-.48.196-.947.535-1.287.34-.34.81-.535 1.29-.535.479 0 .95.196 1.29.535.34.34.535.809.535 1.287 0 .48-.196.95-.535 1.288-.681.68-1.9.68-2.58 0M76.605 49.101a1.834 1.834 0 0 1-.535-1.288c0-.48.196-.947.535-1.287.34-.34.81-.535 1.29-.535s.95.196 1.29.535c.34.34.535.809.535 1.287 0 .48-.196.95-.535 1.288-.68.68-1.899.68-2.58 0M82.137 49.101a1.834 1.834 0 0 1-.535-1.288c0-.48.196-.947.535-1.287.34-.34.81-.535 1.29-.535s.95.196 1.29.535c.34.34.535.809.535 1.287 0 .48-.196.95-.535 1.288-.68.68-1.899.68-2.58 0"/>
    </g>
</svg>
