<svg xmlns="http://www.w3.org/2000/svg" width="115" height="113" viewBox="0 0 115 113">
    <g fill="none" fill-rule="evenodd">
        <path fill="#FF5400" fill-opacity=".08" d="M53.979 46.689C36.245 67.345-1.746 53.232.062 77.237 1.87 101.242 82 126.524 105.675 104.629 129.349 82.73 103.445-.522 78.035.002 52.625.53 71.714 26.032 53.98 46.69"/>
        <path fill="#06F" d="M33.233 44.473l8.724 14.27H24.47l8.762-14.27zm11.05 18.84l9.996 34.323-28.903-34.324h18.906zM71.106 56.8l-8.705-14.23h17.406L71.107 56.8zm-12.61-12.164l8.629 14.106H49.87l8.626-14.106zm-21.26-2.065h17.356l-8.68 14.192-8.676-14.192zM68.17 63.312l-9.674 33.21-9.671-33.21H68.17zm4.541.002H91.62L62.716 97.637l9.996-34.323zm2.376-4.572l8.717-14.259 8.728 14.26H75.088zm22.153-.753l-10.83-17.691C85.53 38.858 84.032 38 82.408 38H34.625c-1.623 0-3.117.857-3.998 2.29L19.762 57.987c-1.16 1.889-.982 4.387.437 6.073l34.737 41.254c.904 1.072 2.202 1.687 3.561 1.687 1.358 0 2.656-.615 3.563-1.687L96.8 64.056c1.417-1.682 1.598-4.178.441-6.067z"/>
        <path fill="#FF5400" d="M36.575 29a2.564 2.564 0 0 1-2.544-2.96l1.854-11.872a2.57 2.57 0 0 1 2.938-2.139 2.566 2.566 0 0 1 2.146 2.929l-1.854 11.874A2.572 2.572 0 0 1 36.575 29M16.438 44c-.13 0-.263-.01-.397-.03L4.17 42.114a2.575 2.575 0 0 1 .79-5.086l11.872 1.855a2.573 2.573 0 0 1 2.138 2.94A2.568 2.568 0 0 1 16.44 44M23.483 32a2.547 2.547 0 0 1-2.035-.993l-6.963-9.16c-.82-1.079-.575-2.593.548-3.382 1.122-.785 2.698-.554 3.518.527l6.964 9.16c.82 1.08.576 2.594-.548 3.382a2.57 2.57 0 0 1-1.484.466M77.425 29a2.572 2.572 0 0 1-2.54-2.168L73.03 14.958a2.566 2.566 0 0 1 2.146-2.929 2.567 2.567 0 0 1 2.938 2.14L79.97 26.04A2.564 2.564 0 0 1 77.425 29M97.562 44a2.569 2.569 0 0 1-2.531-2.176 2.573 2.573 0 0 1 2.138-2.94l11.872-1.856a2.565 2.565 0 0 1 2.928 2.147 2.575 2.575 0 0 1-2.138 2.94l-11.872 1.854c-.134.02-.267.031-.397.031M90.517 32a2.57 2.57 0 0 1-1.484-.466c-1.124-.788-1.368-2.303-.548-3.382l6.963-9.16c.822-1.08 2.396-1.313 3.519-.526 1.123.788 1.369 2.302.548 3.381l-6.963 9.16a2.551 2.551 0 0 1-2.035.993"/>
    </g>
</svg>
