<svg xmlns="http://www.w3.org/2000/svg" width="31" height="22" viewBox="0 0 31 22">
    <g fill="#CCC" fill-rule="evenodd">
        <path d="M15.815 10.9c0 .632-.51 1.146-1.14 1.146-.629 0-1.14-.514-1.14-1.146 0-.633.511-1.146 1.14-1.146.63 0 1.14.513 1.14 1.146M20.125 10.9c0 .632-.51 1.146-1.14 1.146-.629 0-1.14-.514-1.14-1.146 0-.633.511-1.146 1.14-1.146.63 0 1.14.513 1.14 1.146M24.436 10.9c0 .632-.51 1.146-1.14 1.146-.63 0-1.14-.514-1.14-1.146 0-.633.51-1.146 1.14-1.146.63 0 1.14.513 1.14 1.146"/>
        <path d="M5.02 9.454a.456.456 0 0 1-.098-.5.456.456 0 0 1 .421-.283h2.89c.66 0 1.2-.54 1.203-1.205l.01-2.282a2.252 2.252 0 0 1 2.243-2.256h14.593a2.253 2.253 0 0 1 2.245 2.257v11.43a2.253 2.253 0 0 1-2.245 2.257h-14.6a2.253 2.253 0 0 1-2.246-2.257v-2.221c0-.324-.125-.627-.353-.856L5.021 9.454zm6.662 11.837h14.6c2.565 0 4.652-2.097 4.652-4.676V5.185c0-2.58-2.087-4.677-4.653-4.677H11.69c-2.564 0-4.65 2.098-4.65 4.677l-.009.616a.457.457 0 0 1-.456.451H1.337c-.488 0-.924.293-1.11.745a1.21 1.21 0 0 0 .26 1.32l6.41 6.444a.463.463 0 0 1 .133.324v1.53c0 2.579 2.086 4.676 4.652 4.676z"/>
    </g>
</svg>
