<svg xmlns="http://www.w3.org/2000/svg" width="20" height="24" viewBox="0 0 20 24">
    <g fill="#06F" fill-rule="evenodd">
        <path d="M5.034 11.918a.768.768 0 0 0 .764-.774.765.765 0 0 0-.764-.764.768.768 0 0 0-.765.774c0 .42.343.764.765.764M5.14 9.86a.764.764 0 0 0 1.002-.406 4.347 4.347 0 0 1 4.007-2.651.765.765 0 0 0 0-1.529 5.871 5.871 0 0 0-5.414 3.583.766.766 0 0 0 .405 1.004"/>
        <path d="M9.534 2.619a.622.622 0 1 1 0-1.244.622.622 0 0 1 0 1.244zm0 1.376c.886 0 1.749.176 2.555.52l.33.151a6.513 6.513 0 0 1 3.658 5.872v5.278c0 1.007.428 1.977 1.175 2.66a.878.878 0 0 1-.593 1.529H2.409a.881.881 0 0 1-.593-1.529 3.618 3.618 0 0 0 1.174-2.66v-5.278a6.55 6.55 0 0 1 6.544-6.543zm1.52 17.538a1.694 1.694 0 0 1-1.52.938 1.695 1.695 0 0 1-1.522-.938h3.043zm7.23-4.185a2.082 2.082 0 0 1-.678-1.532v-5.278c0-2.931-1.63-5.662-4.187-7.073l.01-.01-.39-.188a8.173 8.173 0 0 0-1.63-.58A2 2 0 0 0 9.534 0a2 2 0 0 0-1.876 2.687 8.072 8.072 0 0 0-6.197 7.851v5.278c0 .58-.248 1.138-.678 1.532A2.413 2.413 0 0 0 0 19.125a2.411 2.411 0 0 0 2.409 2.408h3.986A3.259 3.259 0 0 0 9.534 24a3.259 3.259 0 0 0 3.139-2.467h3.986a2.411 2.411 0 0 0 2.408-2.408c0-.674-.285-1.323-.783-1.777z"/>
    </g>
</svg>
