<svg xmlns="http://www.w3.org/2000/svg" width="112" height="113" viewBox="0 0 112 113">
    <g fill="none" fill-rule="evenodd">
        <path fill="#FF5400" fill-opacity=".08" d="M46.721 60.513c20.804 17.028 7.544 54.624 31.292 52.392 23.75-2.234 47.273-81.442 25.129-104.287C80.996-14.224-.994 12.813.009 37.767c1.005 24.955 25.91 5.717 46.712 22.746"/>
        <path fill="#06F" d="M45.565 19.203a2.313 2.313 0 0 0-1.827-.03 163.485 163.485 0 0 1-11.065 4.003A2.432 2.432 0 0 0 31 25.507v8.049C31 34.904 32.072 36 33.388 36c1.316 0 2.388-1.096 2.388-2.444v-6.262a168.442 168.442 0 0 0 9.712-3.574c1.223-.494 1.828-1.915 1.346-3.17a2.406 2.406 0 0 0-1.27-1.347M49.483 16.218a2.505 2.505 0 0 0-1.276 3.286A2.483 2.483 0 0 0 50.487 21c.34 0 .675-.07 1.033-.227 1.25-.552 1.82-2.027 1.271-3.288-.548-1.258-2.02-1.833-3.308-1.267M87.915 64.394a2.39 2.39 0 0 0-3.32.701 49.779 49.779 0 0 1-5.83 7.344 51.822 51.822 0 0 1-5.823 5.222 2.433 2.433 0 0 0-.452 3.388 2.372 2.372 0 0 0 1.907.951c.532 0 1.033-.171 1.454-.494a56.642 56.642 0 0 0 6.36-5.708 54.592 54.592 0 0 0 6.4-8.057 2.434 2.434 0 0 0-.696-3.347M68.332 80.338l-.118.07a2.479 2.479 0 0 0-.886 3.363A2.437 2.437 0 0 0 69.438 85c.426 0 .847-.115 1.219-.332l.138-.081a2.444 2.444 0 0 0 1.125-1.501c.164-.637.074-1.3-.255-1.868a2.424 2.424 0 0 0-3.333-.88"/>
        <path fill="#FF5400" d="M84.59 37.516L59.52 62.584c-.825.83-2.273.83-3.1 0L44.41 50.578a2.199 2.199 0 0 1 0-3.104 2.183 2.183 0 0 1 1.552-.641c.587 0 1.137.228 1.551.641l8.77 8.771c.902.903 2.474.901 3.373 0l21.831-21.83c.828-.827 2.274-.827 3.102 0a2.197 2.197 0 0 1 0 3.101m3.374-6.477A6.922 6.922 0 0 0 83.038 29c-1.86 0-3.61.725-4.926 2.039L57.97 51.182 50.887 44.1a6.919 6.919 0 0 0-4.925-2.038 6.92 6.92 0 0 0-4.925 2.038 6.975 6.975 0 0 0 0 9.851l12.007 12.01A6.93 6.93 0 0 0 57.97 68a6.92 6.92 0 0 0 4.925-2.04l25.07-25.07A6.925 6.925 0 0 0 90 35.964c0-1.863-.723-3.611-2.037-4.925"/>
        <path fill="#06F" d="M99.898 20.972v18.691c0 19.653-9.065 32.646-16.669 40.083-8.605 8.421-17.718 12.16-19.728 12.16-2.012 0-11.125-3.739-19.73-12.16-7.604-7.439-16.669-20.431-16.669-40.083v-18.69c12.815-3.667 24.728-8.73 36.399-15.475C74.85 12.04 87.419 17.385 99.898 20.972m3.225-4.385C89.945 12.98 76.692 7.367 64.797.353a2.556 2.556 0 0 0-2.593 0C49.96 7.57 37.424 12.88 23.877 16.587A2.55 2.55 0 0 0 22 19.043v20.62c0 21.42 9.898 35.6 18.201 43.723C49.161 92.152 59.666 97 63.501 97c3.835 0 14.338-4.848 23.3-13.614C95.102 75.262 105 61.084 105 39.663v-20.62a2.55 2.55 0 0 0-1.877-2.456"/>
    </g>
</svg>
