<?xml version="1.0" encoding="utf-8"?>
<!-- Generator: Adobe Illustrator 22.1.0, SVG Export Plug-In . SVG Version: 6.00 Build 0)  -->
<svg version="1.1" id="Capa_1" xmlns="http://www.w3.org/2000/svg" xmlns:xlink="http://www.w3.org/1999/xlink" x="0px" y="0px"
	 viewBox="0 0 95 91" style="enable-background:new 0 0 95 91;" xml:space="preserve">
<style type="text/css">
	.st0{fill:#0066FF;}
	.st1{fill:#FFFFFF;}
</style>
<path class="st0" d="M91.2,27.7L91.2,27.7C88.7,22,85,16.8,80.6,12.5c-2.2-2.1-4.7-4.1-7.3-5.7c-0.7-0.4-1.3-0.8-2-1.2l-1-0.5
	c-0.3-0.2-0.7-0.4-1-0.5l-1-0.5c-0.3-0.2-0.7-0.3-1.1-0.5L66,3.1C65.7,3,65.3,2.8,65,2.7c-0.7-0.3-1.4-0.5-2.2-0.7l-1.1-0.3
	c-0.4-0.1-0.7-0.2-1.1-0.3l-1.1-0.3c-0.4-0.1-0.7-0.2-1.1-0.2l-1.1-0.2c-0.4-0.1-0.7-0.1-1.1-0.2c-3-0.4-6-0.6-9.1-0.4
	c-6,0.3-11.9,1.8-17.3,4.2c-0.3,0.1-0.7,0.3-1,0.5l-1,0.5c-0.7,0.3-1.3,0.7-2,1c-0.6,0.4-1.3,0.7-1.9,1.1c-0.6,0.4-1.2,0.8-1.9,1.2
	c-2.4,1.7-4.7,3.5-6.9,5.5C10.9,18.2,7.2,23,4.6,28.4C1.9,33.8,0.3,39.9,0,46c-0.2,6.2,0.9,12.4,3.4,18.1c1.2,2.8,2.8,5.5,4.6,8
	c0.5,0.6,1,1.2,1.4,1.8c0.5,0.6,1,1.1,1.5,1.7c0.5,0.5,1.1,1.1,1.6,1.6l1.7,1.5c2.3,2,4.8,3.7,7.4,5.1c2.6,1.4,5.3,2.6,8.1,3.6
	c5.5,1.9,11.3,2.8,17.2,2.8c5.8,0,11.6-0.9,17.2-2.8c2.8-1,5.5-2.1,8.1-3.6c2.6-1.5,5.1-3.2,7.5-5.1c4.6-3.9,8.5-8.9,11.1-14.6
	c2.6-5.7,3.9-11.9,4-18.2C95,39.7,93.7,33.5,91.2,27.7z"/>
<path class="st1" d="M16.6,57.6V39c0-0.8,0.6-1.4,1.4-1.4h4.4c0.8,0,1.4,0.6,1.4,1.4v18.7c0,0.8-0.6,1.4-1.4,1.4H18
	C17.3,59.1,16.6,58.4,16.6,57.6 M35.3,54c0.6,0,1.1-0.1,1.4-0.4c0.4-0.3,0.8-0.6,1.2-1v-2.9c-1.7,0.3-2.9,0.6-3.6,1.1
	c-0.6,0.5-1,1-1,1.6C33.3,53.5,34,54,35.3,54 M32.7,59.6c-1,0-1.9-0.2-2.6-0.5c-0.8-0.3-1.4-0.8-2-1.4c-0.5-0.6-1-1.3-1.2-2.1
	c-0.3-0.8-0.4-1.6-0.4-2.5c0-2.2,0.9-3.9,2.7-5.1c1.8-1.2,4.7-2.1,8.7-2.5c-0.2-1.5-1.1-2.2-2.9-2.2c-0.8,0-1.6,0.1-2.4,0.4
	c-0.5,0.2-1.1,0.4-1.7,0.7c-0.7,0.3-1.5,0.1-1.9-0.6l-1.2-2.3c-0.4-0.7-0.1-1.6,0.6-1.9c0,0,0,0,0,0c1.1-0.6,2.1-1,3.2-1.4
	c1.5-0.5,3.1-0.7,4.7-0.7c2.7,0,4.8,0.8,6.4,2.3c1.6,1.6,2.3,4,2.3,7.5v10.2c0,0.8-0.6,1.4-1.4,1.4h-3.4c-0.6,0-1.2-0.4-1.4-1.1
	L38.7,57h-0.2c-0.8,0.7-1.7,1.3-2.7,1.8C34.9,59.3,33.9,59.6,32.7,59.6 M67.8,54c0.6,0,1.1-0.1,1.4-0.4c0.4-0.3,0.8-0.6,1.2-1v-2.9
	c-1.7,0.3-2.9,0.6-3.6,1.1c-0.6,0.5-1,1-1,1.6C65.9,53.5,66.5,54,67.8,54 M65.3,59.6c-1,0-1.9-0.2-2.6-0.5c-0.8-0.3-1.4-0.8-2-1.4
	c-0.5-0.6-1-1.3-1.2-2.1c-0.3-0.8-0.4-1.6-0.4-2.5c0-2.2,0.9-3.9,2.7-5.1c1.8-1.2,4.7-2.1,8.7-2.5c-0.2-1.5-1.1-2.2-2.9-2.2
	c-0.8,0-1.6,0.1-2.4,0.4c-0.5,0.2-1.1,0.4-1.7,0.7c-0.7,0.3-1.5,0.1-1.9-0.6l-1.2-2.3c-0.4-0.7-0.1-1.6,0.6-1.9c0,0,0,0,0,0
	c1.1-0.6,2.1-1,3.2-1.4c1.5-0.5,3.1-0.7,4.7-0.7c2.7,0,4.8,0.8,6.4,2.3c1.6,1.6,2.3,4,2.3,7.5v10.2c0,0.8-0.6,1.4-1.4,1.4h-3.4
	c-0.6,0-1.2-0.4-1.4-1.1L71.2,57h-0.2c-0.8,0.7-1.7,1.3-2.7,1.8C67.5,59.3,66.4,59.6,65.3,59.6 M69.2,33.3c-1-1-1.1-2.6-0.2-3.7
	l3.1-3.7c1-1.2,2.7-1.3,3.8-0.3c0.1,0,0.1,0.1,0.2,0.1l0.6,0.6c1.1,1.1,1.1,2.8,0,3.9c-0.1,0.1-0.1,0.1-0.2,0.2l-3.7,3.1
	C71.8,34.4,70.2,34.3,69.2,33.3 M55,37.6h-4.4c-0.8,0-1.4,0.6-1.4,1.4v19c0,1.7-0.9,2.7-3.1,2.7h-0.3c-0.8,0-1.4,0.6-1.4,1.4
	c0,0,0,0,0,0v3.5c0,0.8,0.6,1.4,1.4,1.4c0,0,0,0,0,0h3.2l0,0c1.2-0.1,2.3-0.3,3.2-0.7c1-0.5,1.9-1.2,2.5-2c0.6-0.9,1.1-1.8,1.3-2.9
	c0.3-1.1,0.4-2.2,0.4-3.4V39C56.4,38.2,55.7,37.6,55,37.6 M24,30.2c0,2.1-1.7,3.8-3.8,3.8c-2.1,0-3.8-1.7-3.8-3.8c0,0,0,0,0,0
	c0-2.1,1.7-3.8,3.8-3.8C22.3,26.5,24,28.2,24,30.2 M56.5,30.2c0,2.1-1.6,3.8-3.7,3.8c-2.1,0-3.8-1.6-3.8-3.7c0,0,0-0.1,0-0.1
	c0-2.1,1.7-3.8,3.8-3.8C54.8,26.5,56.5,28.2,56.5,30.2"/>
</svg>
