<svg xmlns="http://www.w3.org/2000/svg" width="83" height="79" viewBox="0 0 83 79">
    <g fill="none" fill-rule="evenodd">
        <path fill="#FF5400" fill-opacity=".08" d="M37.875 56.624c17.96-6.384 36.032 15.428 43.33.203C88.505 41.602 48.82-1.674 26.828 3.395 4.835 8.462-8.586 68.1 6.985 76.63c15.57 8.53 12.929-13.623 30.89-20.006"/>
        <path fill="#67809F" d="M38.525 53.364a1.729 1.729 0 0 0-.502 1.213c0 .45.183.89.502 1.213.32.319.762.502 1.212.502.453 0 .894-.183 1.213-.502.32-.32.503-.762.503-1.213 0-.452-.183-.894-.503-1.213-.637-.638-1.787-.64-2.425 0"/>
        <path fill="#67809F" d="M69.217 57.551H10.258a.89.89 0 0 1-.894-.886v-5.06h60.747v5.06a.89.89 0 0 1-.894.886zM49.96 73.082H29.515a4.168 4.168 0 0 1 3.785-2.439h12.875c1.637 0 3.115.967 3.784 2.44zm-14.223-5.87h8.004v-6.23h-8.004v6.23zm36.537-57.038a4.299 4.299 0 0 0-3.056-1.266h-8.923v3.431h8.923c.493 0 .894.398.894.886v34.95H9.364v-34.95c0-.488.401-.886.894-.886h8.923V8.91h-8.923a4.326 4.326 0 0 0-4.324 4.316v43.44c0 2.38 1.94 4.317 4.324 4.317h22.047v6.296a7.559 7.559 0 0 0-6.59 7.52c0 .945.77 1.715 1.714 1.715h24.616c.946 0 1.715-.77 1.715-1.715a7.559 7.559 0 0 0-6.59-7.52v-6.296h22.047a4.326 4.326 0 0 0 4.324-4.317v-43.44a4.28 4.28 0 0 0-1.268-3.05z"/>
        <path fill="#FF5400" d="M47.61 39.01a1.728 1.728 0 0 0-.503 1.212c0 .451.184.892.503 1.212.32.32.762.503 1.212.503.45 0 .893-.184 1.213-.503.32-.32.503-.762.503-1.212 0-.452-.184-.894-.503-1.213-.64-.639-1.785-.639-2.425 0M31.826 38.506c-.946 0-1.716.77-1.716 1.715 0 .946.77 1.716 1.716 1.716h11.38c.946 0 1.715-.77 1.715-1.716 0-.945-.77-1.715-1.715-1.715h-11.38zM19.184 25.675c-.32.32-.503.762-.503 1.213 0 .452.184.893.503 1.213.32.32.761.502 1.212.502.452 0 .894-.183 1.213-.502.32-.32.503-.762.503-1.213 0-.452-.184-.894-.503-1.213-.639-.639-1.787-.639-2.425 0M20.398 30.796c-.944 0-1.71.768-1.71 1.711v15.694h3.421V32.507c0-.928-.783-1.71-1.71-1.71"/>
        <path fill="#FF5400" d="M57.62.993H21.86c-1.75 0-3.173 1.434-3.173 3.195v17.714c0 .959.752 1.71 1.712 1.71.944 0 1.71-.766 1.71-1.71V4.438h35.26v43.738h3.424V4.188c0-1.761-1.423-3.195-3.173-3.195"/>
        <path fill="#FF5400" d="M47.579 26.301l-.181.305-.226-.274a9.75 9.75 0 0 0-2.824-2.319l-.223-.12.124-.222c.432-.768.66-1.64.66-2.522v-.859a5.175 5.175 0 0 0-5.169-5.169 5.175 5.175 0 0 0-5.169 5.17v.858c0 .882.228 1.755.659 2.522l.124.221-.223.121a9.72 9.72 0 0 0-2.823 2.32l-.227.273-.181-.305a9.07 9.07 0 0 1-1.266-4.623c0-5.02 4.085-9.106 9.106-9.106s9.105 4.085 9.105 9.106a9.07 9.07 0 0 1-1.266 4.623zm-9.543-5.152v-.859c0-.939.764-1.704 1.704-1.704.939 0 1.704.765 1.704 1.704v.86c0 .94-.765 1.704-1.704 1.704-.94 0-1.704-.765-1.704-1.705zm6.694 8.138a9.041 9.041 0 0 1-4.99 1.496 9.039 9.039 0 0 1-4.99-1.496l-.215-.14.148-.212a6.182 6.182 0 0 1 5.057-2.617c2.014 0 3.904.978 5.057 2.617l.148.211-.215.141zM39.74 9.108c-6.932 0-12.571 5.638-12.571 12.57a12.43 12.43 0 0 0 3.893 9.081c.074.08.14.146.199.191a12.544 12.544 0 0 0 8.479 3.298c3.136 0 6.136-1.16 8.447-3.27.086-.07.152-.135.202-.19 2.533-2.415 3.921-5.645 3.921-9.11 0-6.932-5.639-12.57-12.57-12.57z"/>
    </g>
</svg>
