<svg xmlns="http://www.w3.org/2000/svg" width="33" height="33" viewBox="0 0 33 33">
    <g fill="none" fill-rule="evenodd" transform="translate(1 1)">
        <circle cx="15.5" cy="15.5" r="15.5" fill="#FFF" stroke="#67809F"/>
        <path fill="#67809F" d="M23.611 11.24l-9.998 9.948a1.021 1.021 0 0 1-.717.288c-.273 0-.535-.105-.719-.288l-4.789-4.765a1.009 1.009 0 0 1 0-1.428 1.045 1.045 0 0 1 1.437 0l3.497 3.48a.818.818 0 0 0 .573.227c.22 0 .429-.083.574-.227l8.706-8.664a1.047 1.047 0 0 1 1.436 0 1.008 1.008 0 0 1 0 1.43"/>
    </g>
</svg>
